<?xml version="1.0" encoding="utf-8"?>
<!-- Generator: Adobe Illustrator 24.0.1, SVG Export Plug-In . SVG Version: 6.00 Build 0)  -->
<svg version="1.0" id="Layer_1" xmlns="http://www.w3.org/2000/svg" xmlns:xlink="http://www.w3.org/1999/xlink" x="0px" y="0px"
	 width="200px" height="200px" viewBox="0 0 200 200" style="enable-background:new 0 0 200 200;" xml:space="preserve">
<g>
	<path d="M99.8,161.6l6.1,1.7c1,0.3,1.7-1.2,0.8-1.8c0,0-5.1-3.2-5.6-3.5c-1.8-4.3-3.9-8.7-6.3-12.6c-0.1-0.2-0.4-0.3-0.6-0.4
		c-1.9-4.2-3.3-8.6-5.4-12.8c0.3-0.4,0.6-0.7,0.9-1.1c0.8-1,1.5-2,2.3-3.1c-0.6-0.3-1.3-0.6-1.8-1c-0.5,0.5-0.8,0.8-0.8,0.8
		c-1,1.3-2.7,2.4-3.3,4c-0.4,0.2-0.7,0.4-1.1,0.6l-2,0.3c-0.3,0.6-0.6,1.2-0.9,1.8l0,0c0,0,0,0,0,0c-0.4,0.8-0.7,1.5-1.1,2.2
		c-0.2,0.5-0.3,1.1-0.3,1.7c0,0.3,0.1,0.6,0.3,0.9l4.5,4.6l2.2,2.3c0.5,0.4,1,1,1.6,1.5c-0.1,0.2,0,0.4,0.1,0.6l6.1,11.1
		c0,0,0,0,0,0l-4.1,5.4c-0.7,0.8,0.4,2,1.3,1.4c0,0,6.3-3.8,6.3-3.8C99.3,162.2,99.6,161.9,99.8,161.6z M89.2,144.8l-2.1-2.4
		l-3.8-4.4c0.1-0.8,0.5-1.8,1.1-2.2c0.5-0.3,1.1-0.6,1.7-0.9c0.2-0.1,0.4-0.2,0.6-0.2c1.8,3.6,4,7.1,5.6,10.8
		c-0.4,0.3-0.7,0.6-1.1,1c-0.2,0.1-0.4,0.2-0.7,0.3C90.2,146,89.6,145.4,89.2,144.8z M91.2,148.2l2.5-1.2c1.2,3.6,2.7,6.8,4.5,10.2
		c-0.4-0.1-0.8-0.1-1.1,0L91.2,148.2z"/>
	<path d="M188.3,116.6l-8.7,2.9c-0.2,0.1-0.4,0.2-0.6,0.3c-0.3-0.2-0.7-0.4-1-0.7l1.4-0.8c0.4-0.2,0.2-0.8-0.3-0.8
		c-0.1,0-2.3,0.4-2.8,0.5c-0.3-0.2-0.6-0.4-1-0.6l1.4-0.7c0.4-0.2,0.2-0.8-0.3-0.8c-0.1,0-2,0.4-2.7,0.5c-0.3-0.2-0.6-0.4-1-0.6
		c0-0.3-0.2-0.6-0.5-0.8c-5.2-3.2-10.9-5.3-16.7-7.2c-0.1,0-0.2,0-0.3,0c-0.4-1-1-1.8-1.7-2.4c-4.9-4.4-10.1-8.6-15.3-12.7
		c-0.5-0.4-1-0.3-1.4,0c-0.1,0-0.1,0-0.2-0.1c-1-0.4-1.9-0.1-2.8,0.1c-1.7,0.4-3.3,0.8-4.9,1.4c0.2,0.7,0.4,1.5,0.5,2.2
		c1.7-0.3,3.4-0.6,5-0.9c0.1,0,0.2,0,0.3-0.1c-1,1.6-1.7,3.5-1.6,5.4c-1,0.1-2.2,0.4-3.4,0.9c-0.4,6.4-3.4,13.1-8.9,18.7
		c-5.4,5.5-12.1,8.7-18.4,9.3c-0.5,1.3-0.8,2.5-0.8,3.5c-1.9-0.1-3.8,0.7-5.4,1.7c0-0.1,0-0.2,0.1-0.3c0.3-1.7,0.6-3.4,0.8-5.1
		c-0.8-0.1-1.5-0.3-2.2-0.5c-0.5,1.7-0.9,3.3-1.2,5c-0.2,0.9-0.5,1.8,0,2.8c0,0,0,0.1,0.1,0.2c-0.2,0.4-0.3,0.9,0.1,1.4
		c4.2,5.1,8.5,10.2,13.1,15c0.6,0.7,1.5,1.3,2.5,1.7c0,0.1,0,0.2,0,0.3c2.1,5.7,4.3,11.4,7.7,16.6c0.2,0.2,0.4,0.3,0.7,0.4
		c0.2,0.3,0.4,0.6,0.6,1c0,0,0,0,0,0l-0.4,2.6c-0.1,0.4,0.6,0.7,0.8,0.2c0-0.1,0.4-0.7,0.7-1.4c0.2,0.3,0.4,0.6,0.6,1
		c0,0,0,0.1,0,0.1l-0.4,2.6c-0.1,0.4,0.6,0.7,0.8,0.2c0-0.1,0.4-0.8,0.7-1.5c0.2,0.3,0.5,0.7,0.7,1c-0.1,0.2-0.2,0.4-0.3,0.6
		l-2.7,8.8c-0.3,1,1.2,1.8,1.8,0.8c0,0,3.5-5.2,4.8-7l5.6,3.1c1,0.5,2-0.8,1.2-1.6l-5.2-5.1c-0.4-0.3-0.7-0.5-1.1-0.5
		c-0.7-2.7-1.5-5.3-2.6-7.7c0.2-0.3,0.4-0.6,0.4-0.6c0.2-0.3,0.3-0.8,0.1-1.2c-2.9-5.3-6-10.5-8.9-15.5c-0.1-1.2-0.9-2.6-1.7-4
		c-0.9-1.5-1.7-3-2.6-4.5c6.8,6.2,14.1,11.9,22.5,15.8c9.9,3.6,30.3,12.4,33.8-3.4c1-4.8-1-10.9-2.5-15.9
		c-3-10.3-8.9-19.5-16.2-27.3c-1.1-1.3-2.3-2.5-3.5-3.8c1.4,0.8,2.9,1.5,4.3,2.3c1.4,0.7,2.8,1.5,4,1.6c5.1,2.8,10.4,5.7,15.7,8.5
		c0.4,0.2,0.8,0.2,1.2-0.1l0.6-0.4c2.4,1,5.1,1.8,7.7,2.4c0.1,0.4,0.2,0.7,0.6,1.1l5.2,5.1c0.8,0.8,2.1-0.2,1.5-1.2
		c0,0-2.2-3.8-3.2-5.5l6.9-4.9C190,117.8,189.3,116.3,188.3,116.6z M122.4,175.5c-1-1.1-1.9-2.3-2.8-3.4c1-0.2,1.9-0.4,2-0.5
		C121.8,173,122.1,174.3,122.4,175.5z M121.3,168.5l-0.7,0.9c-0.9,0.4-1.5,0.7-2.2,1.1l-0.4,0.2c-1.6-5.2-4.2-10.1-6.9-14.8
		c1.1-0.3,1.8-1,2.8-1.9C116.6,158.9,118.9,163.8,121.3,168.5z M102.7,136.5C102.7,136.6,102.7,136.6,102.7,136.5
		c0.9,1,1.8,1.9,2.8,2.9c1.4,3,2.8,5.9,4.2,8.8c0.6,1.4,1.3,2.6,2.9,4.3c-0.9,0.4-1.8,0.9-2.7,1.6c-0.2-0.8-0.7-1.5-1.2-2.1
		c-1.7-2.2-3.6-4.5-5.4-6.5c-2.2-2.5-4.4-5.1-6.7-7.6c0.2-0.2,0.5-0.4,0.7-0.6c1.8-0.5,3.3-0.9,4.8-1.3c0.1,0.2,0.3,0.4,0.4,0.6
		C102.6,136.5,102.7,136.5,102.7,136.5z M164.6,148.8c0.5,2.4,1.1,5.2,0.5,7.5c-2.1,10.1-12.6,8.4-21.6,5.4
		c9.7-1.8,17.7-9.8,19.2-19.5C163.5,144.4,164.1,146.6,164.6,148.8z M159.6,134c0.5,1.1,1,2.3,1.4,3.4c-0.1,0.1-0.1,0.2-0.1,0.3
		c-1,2.6-2.1,5.2-3.4,7.5c-3.7,7.3-10.6,11.8-18.2,14.5c-0.2,0-0.3,0.1-0.4,0.2c-1.9-0.7-3.7-1.4-5.1-2c-1.8-0.9-3.6-1.8-5.4-2.9
		c4.6-0.7,8.9-2.3,12.7-4.8c-0.4,1.4-0.3,2.6,0.4,3.3c1.7,1.6,6.1-0.1,9.8-3.9c3.7-3.8,5.3-8.2,3.7-9.9c-0.7-0.7-1.9-0.8-3.3-0.4
		c2.2-3.7,3.7-7.9,4.3-12.4C157.3,129.4,158.5,131.6,159.6,134z M153.8,124.1c0,0.1-0.1,0.1-0.1,0.2c-4.6,14.6-13.5,23.9-28,28.8
		c-0.1,0-0.2,0.1-0.3,0.1c-3-2-5.8-4.1-8.6-6.4c4.8-1.4,9.3-3.7,13.3-6.7c-1.1,2.5-1.2,4.7,0,5.9c2.1,2.1,7.6-0.1,12.3-4.9
		c4.7-4.8,6.7-10.4,4.6-12.4c-1.2-1.2-3.5-1-6,0.3c2.8-4.1,4.9-8.6,6.1-13.4C149.4,118.3,151.7,121.1,153.8,124.1z M138.5,106.1
		c2.2,2.5,4.6,5,6.8,7.5c-6.8,13.5-17.4,24.5-30.9,31.2c0,0,0,0-0.1,0c-2.9-2.5-5.7-5-8.5-7.5c2.3-0.2,5.3-1.5,8.7-3.6
		c0.2,0.6,0.4,1.1,0.8,1.5c2.6,2.5,9.2-0.2,14.9-5.9c5.6-5.8,8.1-12.5,5.6-15c-0.4-0.4-1-0.7-1.6-0.8c2-3.3,3.1-6.3,3.3-8.5
		C137.8,105.4,138.3,105.8,138.5,106.1z M139.8,104.7c-1-0.9-2-1.8-3-2.7c-0.1-0.1-0.1-0.2-0.2-0.3c-0.4-0.4-0.8-0.6-1.4-0.7
		c0-1.9,1.3-3.7,2.6-5.2c2.5,2.2,5.2,4.3,7.7,6.5c2.1,1.8,4.4,3.6,6.7,5.3c0.6,0.5,1.3,0.9,2.2,1.1c-0.6,1-1.1,1.8-1.5,2.7
		c-1.7-1.6-3-2.2-4.4-2.8C145.5,107.3,142.7,106,139.8,104.7z M169,119.7c-4.8-2.3-9.7-4.5-14.8-6.9c0.9-1.1,1.5-1.8,1.8-2.9
		c2.4,1.3,4.8,2.5,7.2,3.6c2.5,1.1,5.1,2.2,7.8,2.9l-1.1,2.5L169,119.7z M172.1,119.9l0.4-2c1.2,0.9,2.3,1.8,3.5,2.8
		C174.7,120.3,173.5,120,172.1,119.9z"/>
	<path d="M95.1,52.9c-1.1,0-1.2,1.7-0.2,1.9c0,0,6.8,1.6,7.7,1.8l3.1,8.6c0,0.1,0,0.1,0.1,0.2c0.5,1,1.3,1.3,2.1,1.2
		c0.5-1.1,1-2.2,1.6-3.5l-3.8-8.2c0,0,0,0,0-0.1l2.6-8.3c0.3-1.1-1.2-1.8-1.8-0.8c0,0-3.1,4.7-4.3,6.6L95.1,52.9z"/>
	<path d="M74.9,68.1c0,0-0.7-4.8-0.7-4.8c-0.1-0.6-0.3-1-0.6-1.3c0.6-2,1.8-3.8,3.1-5.5c4.4-5.8,10.8-11,18.2-11.4
		c1,0.1,1.8-0.8,1.8-1.7c-0.4-2.8-4.4-1.1-6-0.8c-6.7,2-11.9,6.9-16,12.3c-1.4,2-2.9,4.1-3.5,6.6c-1.2,0.5-2,1.9-0.9,3.5l3.1,3.7
		C73.9,69.4,75,68.9,74.9,68.1z"/>
	<path d="M46.8,109.8l8.3-2.8c0,0,0,0,0,0l8.3,3.6c1.2-0.6,2.4-1.2,3.4-1.7c0.1-0.9-0.4-1.8-1.5-2.2l-8.7-2.9l-2-7.7
		c-0.2-1.1-1.9-0.9-1.9,0.2c0,0-0.3,6-0.3,7.3l-6.4,4.4C45,108.7,45.8,110.2,46.8,109.8z"/>
	<path d="M44.9,96.3c0.2-7.5,5.3-14,10.9-18.5c1.6-1.3,3.4-2.6,5.4-3.2c0.3,0.3,0.7,0.5,1.3,0.6l4.9,0.5c0.8,0.1,1.3-1,0.6-1.5
		c0,0-3.8-3.1-3.8-3.1c-1.6-1.1-3-0.3-3.5,0.9c-2.4,0.6-4.5,2.2-6.5,3.7C47.7,80.9,42,87.9,41.6,96.5C41.7,98.8,45.1,98.6,44.9,96.3
		z"/>
	<path d="M164.4,89.8c0,0-3.9,3.2-5.3,4.2c0,0,0,0,0,0l-11.2-5.8c-0.2-0.1-0.4-0.1-0.6-0.1c-0.5-0.6-1.1-1.1-1.5-1.5l-2.3-2.2
		l-4.7-4.3c-0.2-0.2-0.6-0.3-0.9-0.3c-0.6,0.1-1.1,0.2-1.6,0.3c-0.7,0.4-1.4,0.8-2.2,1.2c0,0,0,0,0,0c0,0,0,0,0,0
		c-0.6,0.3-1.2,0.6-1.8,0.9l-0.3,2c-0.2,0.4-0.4,0.7-0.6,1.1c-1.6,0.6-2.7,2.3-3.9,3.4l-0.7,0.8c0.4,0.6,0.8,1.2,1.1,1.8
		c1-0.8,2.1-1.6,3-2.4c0.3-0.3,0.7-0.6,1.1-0.9c4.3,1.9,8.6,3.2,12.9,5c0,0.2,0.2,0.5,0.4,0.6c3.9,2.3,8.4,4.3,12.7,5.9l3.6,5.5
		c0.6,0.9,2.1,0.2,1.8-0.8c0,0-1.4-4.4-1.9-6c0.3-0.2,0.6-0.5,0.8-0.9l3.6-6.4C166.5,90.2,165.2,89.1,164.4,89.8z M134.2,86
		c0.1-0.2,0.1-0.4,0.2-0.6c0.3-0.6,0.6-1.3,0.9-1.7c0.4-0.7,1.3-1.1,2.2-1.2l4.5,3.7l2.5,2c0.6,0.4,1.2,1,1.9,1.4l-0.3,0.6
		c-0.4,0.4-0.7,0.7-1,1.1C141.4,89.7,137.8,87.6,134.2,86z M157,96.8c-3.4-1.8-6.6-3.1-10.3-4.3l1.2-2.5l9.1,5.6
		C156.9,96.1,156.9,96.4,157,96.8z"/>
	<path d="M67.1,81.5l6.3,2.6c1.2-2,2.7-3.9,4.4-5.7c1.7-1.8,3.6-3.3,5.6-4.6l-2.7-6.2l-0.1-0.2c-3.2,0.7-6.3,2.4-8.8,5
		c-2.6,2.6-4.1,5.8-4.8,9.1L67.1,81.5z"/>
	<path d="M99.5,69c-0.2-0.2-0.3-0.4-0.5-0.5c-0.6-0.6-1.2-1.1-1.9-1.6c-0.3-0.2-0.7-0.4-1-0.6c-0.7-0.4-1.4-0.7-2.1-1
		c-4-1.4-8.5-0.9-11.9,1.6l0.1,0.2l2.6,5.8C89.6,70.1,94.8,68.7,99.5,69z"/>
	<path d="M72.5,85.5l-6-2.5c-2.4,3.5-2.9,7.9-1.3,11.9c0.3,0.7,0.6,1.4,1,2.1c0.2,0.3,0.4,0.7,0.7,1c0.5,0.7,1,1.3,1.6,1.9
		c0.2,0.2,0.3,0.3,0.5,0.5C68.6,95.5,69.8,90.3,72.5,85.5z"/>
	<path d="M105.2,73.1c0.1-2.8-4-3.3-4.6-0.6l-1.7,7.3c-1.1-4.1-2-7.2-2-7.2c-0.7-2.7-4.8-2-4.6,0.8l0.6,7.4
		c-2.3-3.5-4.1-6.2-4.1-6.2c-1.5-2.3-5.2-0.4-4.1,2.2l2.8,6.9C84.3,81,81.7,79,81.7,79c-2.2-1.8-5.1,1.2-3.3,3.3l5.6,6.6
		c-4.5-1.6-8.2-2.8-8.2-2.8c-2.7-0.9-4.4,2.8-1.9,4.3l6.5,3.7c-4.2-0.1-7.5-0.2-7.5-0.2c-2.8-0.1-3.3,4-0.5,4.6l7.3,1.6
		c-4,1.2-7.2,2.1-7.2,2.1c-2.1,0.6-2.1,3.4-0.5,4.3c6.2-2.7,8.2-2.9,8.3-2.9l0.4,0l0,0.1c1.6,0,3,0.6,4.1,1.7c1.3,1.3,2,3.1,1.7,5
		c1.1,0,2.2,0.5,3.1,1.3c1.6,1.6,1.9,4.1,0.6,5.9l-0.1,0c-0.3,1-1.3,3-3.6,7.7c0.4,0.3,1,0.4,1.5,0.4c0.7,0,1.4-0.4,1.8-1.1l3.8-6.4
		c-0.1,4.2-0.2,7.5-0.2,7.5c-0.1,2.8,4,3.3,4.6,0.6l1.6-7.3c1.2,4.1,2.1,7.2,2.1,7.2c0.8,2.7,4.8,1.9,4.6-0.9l-0.7-7.4
		c2.4,3.5,4.2,6.2,4.2,6.2c1.6,2.3,5.2,0.3,4.1-2.2l-3-6.9c3.3,2.6,5.9,4.6,5.9,4.6c2.2,1.7,5.1-1.3,3.2-3.4l-4.9-5.6
		c4,1.5,7,2.6,7,2.6c2.6,1,4.4-2.8,2-4.2l-6.4-3.8c4.2,0.2,7.5,0.3,7.5,0.3c2.8,0.1,3.4-4,0.6-4.6l-7.3-1.7c4.1-1.1,7.2-2,7.2-2
		c2.7-0.8,2-4.8-0.8-4.6l-7.4,0.6c3.5-2.3,6.2-4.1,6.2-4.1c0.6-0.4,0.9-1,1-1.5c0.1-0.3,0-0.7-0.1-1c-4.7,2.4-6.7,3.5-7.6,3.8l0,0.1
		c-1.8,1.3-4.3,1.1-5.9-0.5c-0.8-0.8-1.3-1.9-1.4-3c-1.8,0.3-3.7-0.3-5-1.6c-1.1-1.1-1.7-2.5-1.8-4.1l-0.1,0l0-0.4
		C103.1,80.2,103.2,78.5,105.2,73.1z"/>
	<path d="M73.2,147.7c3.4-4.9,15.7-30.7,15.8-31c0.9-1.3,0.7-3-0.3-4c-0.7-0.7-1.8-1-2.8-0.8l-1.4,0.3l0.4-1.4
		c0.5-1.6,0.1-3.3-1.1-4.5c-0.9-0.9-2.1-1.3-3.3-1.2l-0.4,0l0,0c-1.8,0.4-10,2.7-34.9,17.1C22,135.8,11.7,148.1,8.3,152.8
		c-0.4,0.5-0.8,1-1.1,1.6c-2,3.8-1.3,8.4,1.7,11.4c1.8,1.8,4.2,2.7,6.8,2.7l0.2,0l0.3,0c0.2,0,0.4,0,0.5,0
		c8.1-0.8,20.6-6.4,30.7-11.7c-7.5-8.2,12.4-27.8,18.6-32.4c3.5-2.9,7.1-5.6,10.9-8.1c0.3-0.2,0.7,0.3,0.4,0.5
		c-10.4,8.4-21.2,17.1-28,28.7c-1.8,3.1-3.9,8-1.3,10.9c6-3.1,11.1-6.1,13.8-7.7l0.6-0.3l0.6,0.6c2.6,2.5,6.8,2.4,9.5-0.3
		c0.1-0.1,0.2-0.2,0.3-0.4l0.2-0.2C73.1,147.8,73.2,147.8,73.2,147.7z M16.9,148.5c0.2-0.2,0.4-0.2,0.6,0c0.2,0.2,0.2,0.4,0,0.6
		c-0.2,0.2-0.4,0.2-0.6,0C16.7,148.9,16.7,148.6,16.9,148.5z M48.5,129.3c-2.9,2.1-5.9,4.2-8.9,6.2c-4.2,3.3-8.4,6.9-11.6,11.2
		c0.4,0.6,0.6,1.3,1.3,1.7c0.7,0.4,1.5,0.8,2.3,1.2c0.3-0.2,0.6-0.5,0.9-0.7c1.2-1.2,2.4-2.6,3.5-4c0.3-0.3,0.8,0,0.6,0.4
		c-1.2,1.9-2.5,3.9-4.2,5.4c-1,0.8-1.7,1.8-2.3,2.9c-1.4,3.5-2.6,6.7-5.4,9.4c-0.3,0.4-0.9-0.1-0.6-0.5c1-1.5,1.9-3,2.7-4.6
		c0.8-1.6,1-3.5,2-5c0.5-0.9,1.1-1.6,1.9-2.3c-1-0.2-2-0.6-2.7-1.4c-0.3-0.4-0.5-0.7-0.7-1.2c-0.8,1.2-1.5,2.5-2.1,3.9
		c-0.2,0.4-0.8,0.2-0.7-0.2c1.2-4,3.4-7.3,6.2-10.3c-3.8,2.4-7.7,4.7-11.6,6.8c-0.2,0.1-0.4,0-0.5-0.1c-0.1-0.2,0-0.4,0.1-0.5
		c4.9-3.2,9.8-6.4,14.6-9.6c9.7-6.5,19.1-13.6,29.1-19.6c5-3.1,10-6.1,15.1-8.9c0.4-0.2,0.9,0.4,0.4,0.7
		C67.9,116.3,58,122.6,48.5,129.3z M64.8,147c-0.1,0.5-0.8,0.4-0.7-0.1c0.2-1.4,0.5-2.8,0.9-4.1c0.2-1.6,0.6-3.5,0.9-4.9
		c0.3-1.8,0.6-3.7,0.8-5.6c0-0.4,0.6-0.3,0.6,0c0.1,1.8,0,3.6-0.2,5.4c1.4-2.8,3.3-5.3,5.5-7.5c2.6-2.4,5.4-5,6.9-8.3
		c0.2-0.5,1-0.3,0.8,0.2c-1.4,5.1-6,7.9-9.1,11.8C68,137.7,65.8,142.3,64.8,147z"/>
	<path d="M152,5.9c-0.5,0.3-1,0.7-1.5,1.1c-4.6,3.5-16.7,14.2-29.5,37.6C107.2,70,105,78.2,104.7,80l0,0l0,0.4
		c-0.1,1.3,0.4,2.4,1.3,3.3c1.2,1.2,2.9,1.5,4.5,1l1.3-0.5l-0.3,1.4c-0.2,1,0.1,2.1,0.9,2.8c1.1,1,2.7,1.2,4,0.2
		c0.3-0.1,25.8-13.1,30.6-16.6c0.1,0,0.1-0.1,0.3-0.3l0.2-0.2c0.1-0.1,0.2-0.2,0.4-0.3c2.6-2.7,2.7-6.9,0.1-9.5l-0.6-0.6l0.3-0.6
		c1.5-2.7,4.4-7.9,7.4-14c-3-2.5-7.9-0.3-10.9,1.6c-11.4,7.1-19.9,18.1-28,28.7c-0.3,0.3-0.8,0-0.6-0.4c2.4-3.9,5-7.5,7.8-11.1
		c4.5-6.3,23.6-26.7,32-19.4c5-10.2,10.4-22.9,10.9-31c0-0.2,0-0.4,0-0.5l0-0.3l0-0.2c0-2.5-1.1-4.9-2.9-6.7
		C160.4,4.4,155.7,3.8,152,5.9z M121.3,78.8c3.2-1.6,5.8-4.4,8.1-7.1c2.2-2.3,4.7-4.2,7.4-5.7c-1.8,0.3-3.6,0.4-5.4,0.4
		c-0.4,0-0.4-0.5,0-0.6c1.9-0.3,3.7-0.6,5.5-0.9c1.4-0.3,3.3-0.8,4.8-1c1.3-0.4,2.7-0.8,4.1-1c0.5-0.1,0.6,0.7,0.1,0.7
		c-4.7,1.1-9.2,3.5-12.9,6.5c-3.8,3.2-6.5,7.9-11.5,9.4C121.1,79.8,120.8,79,121.3,78.8z M146.3,15.8c0.2-0.2,0.4-0.2,0.6,0
		c0.2,0.2,0.2,0.4,0,0.6c-0.2,0.2-0.4,0.2-0.6,0C146.2,16.2,146.1,15.9,146.3,15.8z M160.9,23.1c-2.6,2.8-5.8,4.1-9.2,5.6
		c-1.1,0.6-2.1,1.3-2.9,2.4c-1.5,1.8-3.4,3.1-5.3,4.4c-0.4,0.2-0.7-0.3-0.4-0.6c1.4-1.1,2.8-2.3,4-3.6c0.2-0.3,0.5-0.6,0.7-0.9
		c-0.4-0.8-0.8-1.6-1.2-2.3c-0.4-0.6-1.1-0.9-1.7-1.2c-4.2,3.3-7.7,7.5-10.9,11.9c-1.9,3.1-3.9,6.1-6,9
		c-6.5,9.7-12.4,19.8-18.5,29.8c-0.3,0.5-0.9,0-0.7-0.4c2.8-5.2,5.6-10.3,8.6-15.3c5.8-10.2,12.7-19.7,18.9-29.6
		c3.1-4.9,6.2-9.9,9.3-14.9c0.1-0.2,0.3-0.2,0.5-0.1c0.2,0.1,0.2,0.3,0.1,0.5c-2.1,4-4.3,7.9-6.6,11.8c2.9-2.9,6.2-5.2,10.1-6.5
		c0.4-0.1,0.7,0.5,0.3,0.7c-1.3,0.6-2.6,1.4-3.8,2.2c0.4,0.1,0.8,0.3,1.2,0.6c0.8,0.7,1.2,1.7,1.4,2.7c0.7-0.8,1.4-1.4,2.3-1.9
		c1.5-1.1,3.4-1.3,5-2.1c1.5-0.8,3.1-1.7,4.5-2.8C160.8,22.1,161.3,22.7,160.9,23.1z"/>
</g>
</svg>
