<svg xmlns="http://www.w3.org/2000/svg" viewBox="0 0 144 32" preserveAspectRatio="none"><defs><style>.a{fill:#f0703a}</style></defs><title>highlight</title><path class="a" d="M59.76 1.51h.62v.21s0 .07-.11.15h-.1c-.1-.22 0-.29-.31-.29zm-11.3.21h-.31c.11.07.21.14.31 0zM144 .73a4.26 4.26 0 0 1-.42 1.56c-.2.36-.82.43-.82.64.21.71-.61 1.28-.51 2a.47.47 0 0 1-.21.35c-.51.43-.2 1-.3 1.14a2.62 2.62 0 0 0-.21 1.58c.1.64-1 1.07-2.05.85a6.41 6.41 0 0 0-2.57-.28c-1 .07-2.06.07-3.19.07v.07a.41.41 0 0 0 .21.36c.41.28.1.57.1.85s-1 .21-1 .5c0 .07.21.14.41.14.42 0 .52.14.31.28s-.1.5-.1.71c.1.85.93.78.31 1.28-.21.21-.21.36.1.57s.31.35 0 .57c-.72.42 0 .92.21 1.27.41.64-.52 1.14-1.85 1.07a11.42 11.42 0 0 0-1.55-.07 1.85 1.85 0 0 0 .21.64c.31.57-.41 1-1.44 1.42-.61.28-.92.57-.72.85a1.61 1.61 0 0 1-.2 1.71c1.85-.08 2.67-.22 3.8.56.62.43 1 .93.31 1.42-.41.29-.2.71-.72 1-.1.07 0 .14.11.21.92.43.41.85.41 1.28s.3.85-.62 1.14c-.31.07 0 .35.2.42.93.43.93.85.42 1.35s0 .71.3 1.07c.72.7-.41 1.27-2.26 1.13-4.72-.35-9.55-.57-14.38-.64.41.14.82.36.72.43-.2.28 0 .49.51.78s-.51.64-2 .78a40.16 40.16 0 0 1-7.19.14c-2.57-.21-5.65-.21-8.42-.28-7.09-.36-35.44-1-44.18-1.14-9.14 0-19.41-.07-23.21.15H32c-3-.15-5.75.14-8.73.07-1.23 0-2.16.14-3.49.07-2.26-.22-4.11-.93-4.21-1.85a1.53 1.53 0 0 1 .2-1.14c.21-.21.11-.63-.1-1.06-3.59.5-3.7-1.07-5.24-2.06a23.94 23.94 0 0 1-1.93-3.44.36.36 0 0 1 .09-.51.24.24 0 0 1 .11-.06c.83-.64.41-1.2.21-1.84a21.25 21.25 0 0 1-2.26-.07 2.21 2.21 0 0 1-1.75-.71c-.92-1.64.72-1.57.21-2.63-.41-.78 0-1.56 0-2.27 0-.43.31-.79 1-1.07s.41-.43.3-.57h-.2a4.84 4.84 0 0 0-1.72.48 3.37 3.37 0 0 1-2.77 0 1.85 1.85 0 0 1-1.64-1.33.53.53 0 0 1 0-.57 15.62 15.62 0 0 0 .92-2c.41-.85.31-1.91 1.13-2.62.1-.07.1-.07.1-.15A5.63 5.63 0 0 0 3.57 5a2.93 2.93 0 0 1 .72-.07c.1.07.31-.22.51-.07s.52-.07.83-.07c.82.14.1-.5 1.43-.15.31.07.62-.28.93-.42.1 0 .1-.29.2-.29s.41-.35.52-.21.31.5.41.43.31-.22.31-.36.82-.85 1-.49.93.14 1.44.14c.21 0 .52-.07.52.07s0 .28.3.28c.62 0 .31-.28.83-.49.1-.08-.52-.29-.83-.15-.1 0-.2-.14-.3-.21.3 0 .61-.07.92-.07h.72c.2.07.3.28.51.14-.1-.21 0-.28 0-.28.31 0 .51-.07.82-.07a1.39 1.39 0 0 1 .52.14c.41.21.92-.29.92.21s.62.57.72.28.31-.28.51-.42c.41-.14.21-.43-.1-.36s-.62.07-.51-.07c3.58-.15 4.85-.22 5.58-.22.2.14.41.14.41.36s-.21.56.1.71c.62.28 1.13-.64.93-.79s-.21-.14-.21-.21h3c0 .07.1.07.1.21 0 .36.31.36.52.15 0-.22.2-.22.31-.36A16.43 16.43 0 0 0 30 2.22h1c.83 0 1.75-.07 2.57-.07s2-.07 3.19-.14v.07c0 .21.92.42 1.23.35-.31-.21-.51-.28-.51-.42h.82a1.63 1.63 0 0 0 .82 0 .2.2 0 0 1 .21 0 1.63 1.63 0 0 0 .82 0c.2 0 .31.14.51.21s.21.28.21.5c.1.49.92.35.51.07-.1-.07-.1-.43.31-.71-.1 0-.1-.07-.21-.07h.82a.48.48 0 0 1-.21.07c.1.07.41.14.41 0s0-.07-.1-.14c1.23 0 2.47-.07 3.7-.07.1.21.31.14.72.07s.31.35.51.21c.41-.14 1.13.14 1.13-.14v-.29c.93 0 1.75-.07 2.57-.14 1.44-.07 2.78.07 4.21 0h.52c.82 0 1.64 0 2.46-.07a1 1 0 0 1 .52.57c.2.43-.11.64.51.43a1 1 0 0 1 .62-.08.48.48 0 0 0-.31.08c-.21 0-.41 0-.31.21a.41.41 0 0 0 .51.21 1.87 1.87 0 0 0 .62-.14c.82-.43 1.34 0 2.88-.07a.68.68 0 0 0 .41-.14c0-.22-.31-.22-1.85-.15h-1.34c.31-.07.31-.21.51-.28s-.2-.07-.1-.28.1-.22.1-.36h1.34a.26.26 0 0 0 .31 0 11.1 11.1 0 0 1 2.16-.14.63.63 0 0 0 .51.42 1 1 0 0 0 .92 0c.31-.21.83.43 1.24.15.1-.15 0-.15-.11-.29s.31-.14.52-.21H69c0 .07 0 .07-.1.07s-.52-.07-.52.14a.3.3 0 0 0 .36.23c.21-.15.31.07.52.14s.3 0 .51-.14.31.21.51.07.21 0 .31 0c.1-.29-.1-.22-.51-.36-.21-.07-.31-.07-.31-.14 1 .07 2 .14 3.18.21 0 .07.11.14.21.22s-.21.21 0 .28c.51.14.62 0 .41-.14s-.1-.07 0-.15a1 1 0 0 0 .51-.28c1.24 0 2.88 0 4.94-.07 1.44-.07 2.87 0 4.31-.07s3 0 4.52-.14c.21.07.42.14.42 0h.51a11.22 11.22 0 0 1 1.64 0h.41s0 .07.11.07.3 0 .3-.07c3.29-.15 9.35-.15 9.46-.15a57 57 0 0 1 6.16-.07c.1.29 0 0 .1.5 0 .14.41.14.31-.07v-.15c.1-.14.21-.21.1-.21h1.13a29.51 29.51 0 0 0 3.39.07c0 .07.11.07.21 0h.92v.21c-.1.29.52.43.83.36s.31-.29.31-.57a5 5 0 0 0 1-.07c.11 0 .21.07.31.07s.1 0 .1-.07h.41v.14c.11.07.21 0 .31-.07v-.07a2.15 2.15 0 0 1 .72.07c.21 0 .82-.07 2.67-.22a1.14 1.14 0 0 0 .52 0 1.5 1.5 0 0 0 .51-.07h.31c.1.07.31 0 .41 0l.09-.07h.31c.1.14 0 .36.61.43 1.55.21 2.57-.36 2.37-.57h.31s0 .07.1.07V.73c.51 0 1.13-.07 1.75-.07 1.54-.07 3.08 0 4.62-.07.62 0 1.13 0 1.44.42.1.22.51-.07.82 0-.2-.14-.51-.14-.51-.35s.51-.21.71-.21c1.55 0 6.37.14 7.71-.36.59-.28 2.34.14 2.24.64zM15.38 3c-.1-.28-.51-.21-.41-.07a.21.21 0 0 0 .23.2.23.23 0 0 0 .18-.13zm6.48 7.67H21c-.82 0-1.85 0-2.87.07 1.16 0 2.49 0 3.73-.07zm2.67-7.39c0 .14 0 .22.1.14s0-.13-.1-.13zm8.62-.92c-.1-.21-.2 0 0 0zM31.1 17a6.43 6.43 0 0 0 1.64 0 11.22 11.22 0 0 0-1.64 0zm-.51-14.14c.72.35.72-.57.3-.57-.2.14-.61.5-.3.57zm-1.75.43c.1 0 .1.07 0 0 .21.07.21 0 .21-.08s-.21 0-.21.08zm4.52 23.78h-4.72c2.25.22 6.47 0 4.72 0zm1.54-10.43c.31.07 0 .07.52.14s.2-.07.41-.07c.61-.15-1.13-.15-.93-.07zm4.83-13.92c-.1.07.2.28.41.21s.41-.21.41-.35-.1-.15-.31-.15-.24.15-.51.29zM41.17 27h-3.29a25.8 25.8 0 0 0 3.29 0zm68.51-25.28v.14c.11.22.41 0 .31-.14-.3-.21-.3-.14-.3 0zm-1 12.86a10 10 0 0 0 1.64-.08 12.78 12.78 0 0 0-1.66.08zm-3.11-12.93a.15.15 0 0 0 .12-.17.14.14 0 0 0-.12-.11c-.2-.07-.1.28 0 .28zm-1.33 12.93c-1.85.14-6.78.07-7.5.21 2.05 0 7-.07 9-.14a20.38 20.38 0 0 1-2.06-.15h-.41c-1.13 0-2.16.07-2.36.07 1 0 2.26-.06 3.29 0zM104 25a1.13 1.13 0 0 0-.52.07 17.43 17.43 0 0 1-3 .07c-.51 0-1.23.15 1.24.07.61 0 1.43-.07 2.26-.07.67.02.36-.14.02-.14zM96.54 1.86c.1 0 .1-.07.1-.07-.31-.21-.31.07-.1.07zm-.21 5a4.5 4.5 0 0 0 2.57-.07c-.82.08-1.75 0-2.57.08zM95.1 25.37c2.77 0 2.46-.15 2.05-.15s-2 .08-2.05.15zm-3.39.14a19.85 19.85 0 0 0 2.67-.07c-1 .07-2.57 0-2.67.07zM91 7a4 4 0 0 0 1.54 0A2.26 2.26 0 0 0 91 7zm-1.65 12.9a10.45 10.45 0 0 0 2.56-.07h-2c-.36 0-.56 0-.56.07zM87.19 2.36h.2c.31-.07.31-.21 0-.28s-.39.28-.2.28zm-5 17.33c-1.13 0 0 .14 1.54.14 0 0 1.85 0 3.59-.07.41 0 .52 0 .21-.07-.62 0-.21-.07.2-.07h-1.88c-.92 0-1.85.05-2.77.14h-.62c.21-.07-.1-.07-.3-.07zm-1-17.47c.2-.07.2 0 .41.07a.22.22 0 0 0 .29-.1.36.36 0 0 0 0-.11c0-.5-.21.07-.62-.21s-.55.42-.14.35zm-.41 24.36a6.43 6.43 0 0 0 1.64 0c2-.07 2.36.07 5.14-.07.41 0 1.33 0 1.23-.08a9.84 9.84 0 0 0-1.33 0c-.79 0-7.36 0-6.74.15zM78.35 2.72c-.1.07-.2.14 0 .35s.52-.28 0-.35zm-.3-.43a.12.12 0 0 0 .17 0 .07.07 0 0 0 0-.06.12.12 0 0 0-.17 0 .09.09 0 0 0 0 .06zM76 26.65a7.32 7.32 0 0 0 1.75 0c-.1-.07-2.26-.07-1.75 0zM69.62 2.36a.83.83 0 0 0 .41.07c.11.07.31-.07.41-.07.31.07.31-.21.52-.14s.2.07.2 0 0-.07-.1-.07a3 3 0 0 1-.51-.15c-.11.36-.41.22-.93.36zm-3.9.29l.1.07a.64.64 0 0 0 .52-.22c.1-.07 0-.28-.21-.28s-.62.28-.41.43zm-1.65-.29c.21-.07.31-.21-.2-.28s-.31.35.2.28zm-5.74-.14c0 .14.2.14.3.14a.25.25 0 0 0 .21-.07c-.21-.14-.51-.29-.51-.07zm-1.13-.43c.1 0 .2 0 .2-.07a.52.52 0 0 0-.21.07zM56 2.5a2 2 0 0 0 1.2.5c.51.07.71-.35.2-.42s-.92-.08-1.4-.08zm-3.7.43c.1 0 .21.07.31.07.31 0 .51 0 .62-.21s-.11-.14-.21-.14c-.31 0-.62 0-.72.21-.14-.07-.14 0-.04.07zm-4.42 8.31a16 16 0 0 1 2 .07c1.74.07 3.59 0 5.34 0a40.19 40.19 0 0 0 5-.14h.41c2.16.14 4.21 0 6.37.21.93.07 1.85 0 2.78 0 1.85.07 3.7-.07 5.54 0 .21 0 .72-.07 1.13-.07h-2.82C71.06 11.38 65 11 63.25 11c-2-.07-3.8.15-5.75.15-2.77-.05-6.16.02-9.66.09zM61.4 24.87a8.54 8.54 0 0 0-1.95.14h4.32a13.36 13.36 0 0 0-2.37-.14zm-10.17 1.35a25.55 25.55 0 0 0 4 0c-.4-.07-4.31-.22-4 0zm-.51 1.42c-.62-.28 1.23-.14 2-.21a20.74 20.74 0 0 1 2.28-.07 36.4 36.4 0 0 0 3.91-.07c-.82-.07-14.79-.07-15.72 0a59.22 59.22 0 0 0 6 .07h.41c.21 0 0 .07-.1.07-.52.07-.41.07.1.14s.72.07 1.13.07zm60.09-.85c.11-.07-6.57.14-6.67-.07s2.16-.14 2-.21-16.23.21-16.13.35 2.67-.07 3 0c2.47.14 7.5-.28 10.17-.14-.51.07-.82.14-1.54.21-1 0-32.46.5-33.59.43-.72 0-1.34.07-2.06.07h-1.71a11.13 11.13 0 0 1-2.16-.07c-.72-.07-.41-.14.31-.14 1.85.14 3.49-.07 7-.07 1.65 0 3.09 0 4.63-.15-1.34-.07-12.23 0-14.28.07a2.27 2.27 0 0 0 1 .15c.51 0 .61.14.1.14l-8.32.07v.07c19.31.07 46.95.71 58.25-.71zm-.1-24.93c.21-.28-.1-.14 0 0zm.62-.14c-.1.07.1.07.2.14.42-.14 0-.42-.2-.14zm4.11 22.44a6.51 6.51 0 0 0-1.65 0c-.92 0 .11.14 1.65 0zm3.8-22.79a1 1 0 0 0 1 .07c-.49-.36-1.1-.21-1-.07zm0 .28c-.1.15.1.15.2.08s-.1-.15-.2-.08zm-.51-.42c-.21 0-.11.07 0 0zm-1.24 1.49a.48.48 0 0 0 .31-.07c.1-.28.31-.21.41-.43s-.51-.35-.62-.14-.41.57-.1.64zM120.88 24zm.31-17.54a8.57 8.57 0 0 0-3.49.21 17.7 17.7 0 0 0 3.49-.21zm10.69-.35c-.52.07-1.13-.15-1.65.14a3.26 3.26 0 0 0 1.64-.15zm2.56 0a1.79 1.79 0 0 0-1.85.14 4.13 4.13 0 0 0 1.85-.15zm1.75-2.56c-.41-.07-.72.07-1 0-.1-.07-.31 0-.31.14 0 .36.93.07 1.34-.14zM5.73 3.78c0-.07 0-.07-.11-.14-1.13.43 0 .43.11.14zm-2.26-.21c0 .07-.11.14-.11.28v.07c.21-.07.31 0 .62-.14.1-.21-.1-.21-.51-.21zm-.21.64v.07A2.89 2.89 0 0 0 4 4.21a1.26 1.26 0 0 0-.74 0zm5.55-.71a.52.52 0 0 0 .51-.07s0-.14-.1-.14-.41.14-.41.21zm-2.26-.36c-.51.36-.41-.07-.82.07-.21.08-1.34.36-1.34.36a8.58 8.58 0 0 0 2.26-.21c.21-.07.1-.29-.1-.22z"/></svg>