<?xml version="1.0" encoding="utf-8"?>
<!-- Generator: Adobe Illustrator 24.0.1, SVG Export Plug-In . SVG Version: 6.00 Build 0)  -->
<svg version="1.0" id="Layer_1" xmlns="http://www.w3.org/2000/svg" xmlns:xlink="http://www.w3.org/1999/xlink" x="0px" y="0px"
	 width="648px" height="648px" viewBox="0 0 648 648" style="enable-background:new 0 0 648 648;" xml:space="preserve" fill="#f0703a">
<g>
	<g>
		<path d="M135,185.6c-8.6,11.9-21.3,13.5-33.8,4.6c-12.1-8.7-14.8-22-6-34.1c2.9-4,6-6.6,9.4-8.4l9,8.9c-3.1,0.9-6.1,2.4-8.3,5.5
			c-3.9,5.4-2.4,11.8,4.3,16.6c6.8,4.9,13.4,3.9,17.3-1.5c2-2.7,2.7-5.8,3.2-9.7l10.4,5.3C139.6,177,138.3,181.1,135,185.6z"/>
		<path d="M124.5,123.5l11.7-10.8l44.8,24.3l-11.2,10.3l-7.4-4.2l-11.1,10.2l3.7,7.5l-10.1,9.3L124.5,123.5z M146.4,143.3l6.5-6
			l-13.5-8.2L146.4,143.3z"/>
		<path d="M185.6,134.8L160,94.1l12.1-7.6l19.2,30.4l12.8-8.1l6.5,10.3L185.6,134.8z"/>
		<path d="M230.5,58.2l15.2-4.8l30.1,41.2l-14.5,4.5l-4.9-6.9L242,96.7l0.1,8.4l-13.2,4.1L230.5,58.2z M241.7,85.5l8.4-2.6
			l-8.6-13.2L241.7,85.5z"/>
		<path d="M300.5,93c-14.6,1.7-24.4-6.6-26.2-21.9c-1.7-14.8,6.3-25.8,21.1-27.5c4.8-0.6,8.9-0.1,12.5,1.3l-0.5,12.6
			c-2.8-1.7-5.9-2.9-9.7-2.5c-6.6,0.8-10.3,6.2-9.3,14.3c1,8.3,6.2,12.5,12.8,11.8c3.3-0.4,6.2-1.9,9.3-4.2l3.1,11.3
			C310,90.7,306.1,92.4,300.5,93z"/>
		<path d="M340.1,43.4l15.9,1.4l12.2,49.5L353,93l-1.9-8.3l-15.1-1.3l-3.1,7.8L319.3,90L340.1,43.4z M340.1,72.9l8.8,0.8l-3-15.5
			L340.1,72.9z"/>
		<path d="M392,101.6L374.6,96l14.6-45.8l16.9,5.4c15.9,5.1,21.4,16.9,17.1,30.6C418.8,99.8,407.4,106.5,392,101.6z M402.2,65.7
			l-2.8-0.9l-8.1,25.3l2.9,0.9c6.9,2.2,12.4-0.1,15.3-9.1C412.3,73.1,408.9,67.8,402.2,65.7z"/>
		<path d="M420.9,112.1l22.8-42.3l27.9,15l-5.3,9.9l-15.6-8.4l-3.3,6.1l12.6,6.8l-5.3,9.7l-12.6-6.8l-3.6,6.7l16.2,8.7l-5.3,9.9
			L420.9,112.1z"/>
		<path d="M487.9,158.2l17.9-23.3l-24.1,17.9l-10.5-9.1l14.3-26.4l-20.5,21l-9.3-8l34.1-34l13.9,12.1l-14.7,27.5l25.2-18.3
			l13.6,11.8l-28.9,38.5L487.9,158.2z"/>
		<path d="M530.3,182.2l-13.8,10.2L508,181l13.5-10l14.8-32.4l9.7,13l-9.2,17.8l19.7-3.6l8.8,11.9L530.3,182.2z"/>
	</g>
	<g>
		<path d="M76.5,474.2l-6.8-13.8L92.6,442l-28.5,6.7L57.3,435l39-33.6l7.4,15.2L81.4,434l27.6-6.8l6.5,13.4l-22.3,17.7l27.4-7.3
			l6.4,13L76.5,474.2z"/>
		<path d="M102.7,511.7c-9.3-11.2-7.4-25.2,4.5-35c11.9-9.9,26.1-9.1,35.4,2.1c9.3,11.2,7.4,25.2-4.5,35
			C126.3,523.7,112.1,523,102.7,511.7z M134,485.9c-3.9-4.7-10.4-3.6-17.3,2.1c-6.9,5.7-9.1,12-5.3,16.6c3.9,4.7,10.4,3.6,17.3-2.1
			C135.6,496.9,137.8,490.6,134,485.9z"/>
		<path d="M148,554.5l2.9-17.6l-1.7-1.4l-9.8,12l-11.4-9.3l31.5-38.6l14.8,12.1c10,8.1,12.1,17.2,5.3,25.5c-4.2,5.2-9.6,7-15.8,5.7
			l-2.6,22.5L148,554.5z M166.3,519l-2.3-1.9l-8.4,10.4l2.3,1.9c3.7,3,7.3,2.8,10-0.7C170.6,525.5,170,522,166.3,519z"/>
		<path d="M194.1,583.8l-1.2-26.1l-10.6,19.6l-13-7.1l23.8-43.8l13,7.1l-9.9,18.3l21.5-12.1l14.6,7.9l-25.3,12.7l2.7,31.8
			L194.1,583.8z"/>
		<path d="M220.8,596l15.2-47.5l31.3,10l-3.5,11.1l-17.5-5.6l-2.2,6.8l14.2,4.5l-3.5,10.9l-14.2-4.5l-2.4,7.6l18.2,5.8l-3.5,11.1
			L220.8,596z"/>
		<path d="M291.8,612.8l-6.8-16.5l-2.2-0.3l-2,15.3l-14.5-1.9l6.5-49.4l18.9,2.5c12.7,1.7,19.3,8.3,17.9,18.9
			c-0.9,6.7-4.5,11-10.5,13.1l9.6,20.5L291.8,612.8z M288.7,573l-2.9-0.4l-1.7,13.2l3,0.4c4.7,0.6,7.6-1.5,8.2-5.8
			C295.8,576.2,293.4,573.6,288.7,573z"/>
		<path d="M334.8,614.7c-7.3,0.3-13.3-1-19.1-3.2l1.7-12.1c6,2.7,12.2,4.3,17.1,4.1c2.9-0.1,4.7-1.2,4.6-3.4
			c-0.1-2.1-1.4-3.1-8.2-5.2c-10.3-3.2-15.1-6.3-15.4-15.1c-0.4-10.2,7.4-15.7,17.2-16.1c7.2-0.3,11.7,0.8,16.7,2.9l-1.7,12.1
			c-5.3-2.6-10.5-3.8-14.2-3.7c-3,0.1-4.4,1.2-4.3,2.9c0.1,1.9,1.3,2.9,7,4.6c11.5,3.3,16.3,7.1,16.7,15.2
			C353.3,609.5,344.9,614.3,334.8,614.7z"/>
		<path d="M402.6,603.8c-11.7,3.4-22.2,0.1-26.3-14l-8.3-28.6l14.2-4.1l8.4,28.8c1.5,5.3,4.8,7.3,8.8,6.2c4.3-1.3,5.5-4.8,4.1-9.8
			l-8.4-28.9l14.2-4.1l8.3,28.6C421.7,591.7,414.2,600.4,402.6,603.8z"/>
		<path d="M464.6,576.8l-26.7-15.2l12.3,22.9l-12.1,6.5l-23.5-43.9l12.9-6.9l24.4,14l-11.3-21l12.1-6.5l23.5,43.9L464.6,576.8z"/>
		<path d="M486.9,562.5l-29.8-39.9l11.9-8.8l29.8,39.9L486.9,562.5z"/>
		<path d="M502.2,499.9l26.4,26.7L518.1,537l-26.4-26.7l-9.5,9.4l-8.6-8.7l29.5-29.2l8.6,8.7L502.2,499.9z"/>
		<path d="M547.2,505.6l-40.8-28.5l18.8-26.9l9.5,6.7l-10.5,15.1l5.9,4.1l8.5-12.2l9.4,6.6l-8.5,12.2l6.5,4.6l10.9-15.6l9.5,6.7
			L547.2,505.6z"/>
		<path d="M581.9,448l-7.7,17.3L528.6,445l7.5-16.8c7.1-15.8,19.9-20.1,33.5-14.1C583.1,420.2,588.7,432.7,581.9,448z M546,433.3
			l-1.2,2.8l25.2,11.2l1.3-2.8c3.1-6.9,1.3-12.8-7.6-16.8C554.9,423.8,549,426.7,546,433.3z"/>
	</g>
	<g>
		<path d="M70.9,246.3c-4.2-1.6-7.4-3.8-10.1-6.4l3.9-6.5c2.8,3,5.9,5.4,8.8,6.5c1.7,0.6,3,0.4,3.5-0.8c0.5-1.2,0-2.1-3.5-4.9
			c-5.1-4.3-7.1-7.3-5.2-12.3c2.2-6,8-7.2,13.7-5.1c4.2,1.6,6.5,3.2,8.9,5.7l-3.9,6.5c-2.4-2.8-5.1-4.7-7.3-5.5
			c-1.7-0.6-2.8-0.4-3.2,0.6c-0.4,1.1,0,2,2.9,4.3c5.8,4.7,7.6,8,5.9,12.7C82.7,247.8,76.8,248.5,70.9,246.3z"/>
		<path d="M51.7,287.6l5.8-30.4l20.1,3.8l-1.4,7.1L64.9,266l-0.8,4.4l9.1,1.7l-1.3,7l-9.1-1.7l-0.9,4.8l11.6,2.2l-1.4,7.1
			L51.7,287.6z"/>
		<path d="M54.8,333.8l0.6-30.9l9.2,0.2L64,334L54.8,333.8z"/>
		<path d="M64.6,378.6c-7.5,1.1-13.6-1.8-15-10.9L47,349.4l9.1-1.3l2.7,18.4c0.5,3.4,2.3,4.9,4.9,4.5c2.8-0.4,3.8-2.5,3.3-5.7
			l-2.7-18.5l9.1-1.3l2.7,18.3C77.4,372.7,72.1,377.5,64.6,378.6z"/>
	</g>
	<g>
		<path d="M574.5,244.3l-8.6-22.1l-5,4.7l-3.7-6.6l6.5-6.8l8.1-3.1l11.8,30.3L574.5,244.3z"/>
		<path d="M586.7,288.9c-8.2,1.6-14.9-3.1-17-13.8c-2.1-10.7,2.2-17.7,10.4-19.3c8.3-1.6,14.9,3.1,17,13.8
			C599.2,280.3,594.9,287.3,586.7,288.9z M581.4,262.7c-3.1,0.6-3.7,4.4-2.5,10.5c1.2,6.1,3.2,9.4,6.4,8.7c3.2-0.6,3.7-4.4,2.5-10.5
			C586.5,265.3,584.6,262.1,581.4,262.7z"/>
		<path d="M577.1,334.5l-0.2-6.7l10.6-10.9c1.8-1.9,2.8-3.2,2.8-5.1c0-1.6-1.4-2.6-3.5-2.6c-2.7,0.1-5.6,1.3-8.4,3.3l-1.3-7.9
			c2.9-1.9,6.3-3.2,11.1-3.3c6.9-0.2,11.2,3.2,11.3,9.1c0.1,4.7-2.2,7.7-6.1,11.4l-5.2,5l11.7-0.3l0.2,7.5L577.1,334.5z"/>
		<path d="M580.9,379.4l3.5-23.4l-6.7,1.6l0.1-7.5l9-2.6l8.6,1.3l-4.8,32.2L580.9,379.4z"/>
	</g>
</g>
<g>
	<g>
		<path d="M324,648c-43.7,0-86.2-8.6-126.1-25.5c-38.6-16.3-73.2-39.7-103-69.4c-29.8-29.8-53.1-64.4-69.4-103
			C8.6,410.2,0,367.7,0,324s8.6-86.2,25.5-126.1c16.3-38.6,39.7-73.2,69.4-103c29.8-29.8,64.4-53.1,103-69.4
			C237.8,8.6,280.3,0,324,0c43.7,0,86.2,8.6,126.1,25.5c38.6,16.3,73.2,39.7,103,69.4c29.8,29.8,53.1,64.4,69.4,103
			C639.4,237.8,648,280.3,648,324s-8.6,86.2-25.5,126.1c-16.3,38.6-39.7,73.2-69.4,103c-29.8,29.8-64.4,53.1-103,69.4
			C410.2,639.4,367.7,648,324,648z M324,10.6c-42.3,0-83.4,8.3-122,24.6c-37.3,15.8-70.8,38.4-99.6,67.2S51,164.7,35.2,202
			c-16.3,38.6-24.6,79.7-24.6,122s8.3,83.4,24.6,122c15.8,37.3,38.4,70.8,67.2,99.6s62.3,51.4,99.6,67.2
			c38.6,16.3,79.7,24.6,122,24.6s83.4-8.3,122-24.6c37.3-15.8,70.8-38.4,99.6-67.2c28.8-28.8,51.4-62.3,67.2-99.6
			c16.3-38.6,24.6-79.7,24.6-122s-8.3-83.4-24.6-122c-15.8-37.3-38.4-70.8-67.2-99.6C516.8,73.6,483.3,51,446,35.2
			C407.4,18.9,366.3,10.6,324,10.6z"/>
	</g>
	<g>
		<path d="M434.8,216.8c-0.2,0.1-0.3,0.3-0.4,0.5c0.2,0.1,0.4,0.2,0.6,0.3c1.2,0.7,2.3,1.8,3.2,2.9c0.1,0.2,0.2,0.3,0.3,0.5l0,0
			c0.1-0.1,0.2-0.2,0.3-0.3c3-3.4,6.1-6.7,9.7-9.5c1.1-0.8,1.5-2.2,1.3-3.4l4.1-6c0.1-0.1,0.1-0.2,0.2-0.4c0.4,0.1,0.9,0,1.4-0.2
			l6.4-3.5c1-0.5,0.4-2.1-0.7-1.8c0,0-3.2,0.8-5.3,1.3l-2.6-7.6c-0.3-1-2-0.8-1.9,0.3l0.2,9.3c0,0.3,0.1,0.6,0.2,0.9c0,0,0,0,0,0
			c0,0-0.4,0.4-0.9,0.9l-0.4-2c-0.1-0.4-0.8-0.4-0.8,0c0,0.1-0.4,2.9-0.3,2.9c0,0.1,0.1,0.2,0.1,0.3c-0.3,0.3-0.6,0.6-0.9,0.9
			l-0.4-2.1c-0.1-0.4-0.8-0.4-0.8,0c0,0.1-0.4,2.9-0.3,2.9c0,0.2,0.1,0.3,0.2,0.4c-0.5,0.4-0.8,0.7-0.8,0.7c0,0-0.1,0.1-0.1,0.1
			c-1.1,0-2.1,0.6-2.7,1.5c-1.3,1.9-2.7,3.6-4.2,5.3C438,213.6,436.4,215.2,434.8,216.8z"/>
		<path d="M315.1,338.9l5.4-4.8l-0.2-4.1c-1.2,0.9-2.7,2.1-4.2,3.4L315.1,338.9z"/>
		<path d="M305.8,200.8c0.2,0.1,0.4,0,0.6-0.2s0-0.4-0.2-0.6c-0.2-0.1-0.4,0-0.6,0.2C305.6,200.5,305.6,200.7,305.8,200.8z"/>
		<path d="M342.5,200.9c0.2-0.1,0.3-0.4,0.2-0.6c-0.1-0.2-0.4-0.3-0.6-0.2c-0.2,0.1-0.3,0.4-0.2,0.6
			C342.1,201,342.4,201,342.5,200.9z"/>
		<path d="M335.1,312.2l-4.9,2.1l-1.9,5c0.9-0.2,2.1-0.4,3.3-0.6L335.1,312.2z"/>
		<path d="M258.3,255c4.2-4.2,8.3-8.4,12.3-12.7c8.1-8.5,15.3-18,23-26.9c3.8-4.5,7.7-8.9,11.7-13.3c0.1-0.1,0.1-0.3,0-0.5
			c-0.1-0.1-0.4-0.1-0.5,0c-3.2,3.1-6.3,6.4-9.4,9.6c1.8-3.5,2.9-7.2,3-11.2c0-0.5-0.7-0.5-0.7,0c-0.2,1.6-0.6,3.2-1.2,4.7
			c-0.2-0.4-0.4-0.7-0.7-1c-0.8-1-2.1-1.2-3.3-1.2c0.4-0.8,0.8-1.5,1-2.4c0.6-1.7,0.3-3.6,0.6-5.4c0.3-1.7,0.8-3.5,1.4-5.2
			c0.1-0.2,0-0.4-0.2-0.5c-0.2-0.1-0.5,0-0.6,0.2c-1.9,3.2-2.3,6.9-2.7,10.5c-0.3,1.3-0.7,2.4-1.5,3.5c-1.3,2-2,4.2-2.7,6.4
			c-0.1,0.4,0.5,0.6,0.7,0.2c0.7-1.7,1.4-3.3,2.3-4.9c0.3-0.4,0.6-0.8,0.8-1.2c0.8,0.2,1.6,0.3,2.3,0.4c0.8,0.2,1.2,0.8,1.8,1.4
			c0.1,0.2,0.3,0.2,0.5,0.2c-1.8,4.6-4.5,8.9-7.5,12.9c-2.6,3-5.1,6-7.6,9.1c-7.5,9.1-15.4,17.8-23.3,26.5
			C257.4,254.8,258,255.3,258.3,255z"/>
		<path d="M334.2,328.6l5.1-0.8l-6.9-3.9l0,0l-2.7,0.9C330.9,325.9,332.5,327.2,334.2,328.6z"/>
		<path d="M329.4,331.3l-3.2-2c-0.1,1.1-0.3,2.7-0.5,4.6l4.9,4.3L329.4,331.3z"/>
		<path d="M312.1,324.5l-5.4,3.5l7.2,0.7l3-3.2C315.5,325.3,313.9,324.9,312.1,324.5z"/>
		<path d="M201.7,294.8l5.4,2.4c0.8-0.3,1.6-1,1.8-1.7c0.2-0.5,0.3-1.3,0.4-1.9c0-0.2,0-0.4,0.1-0.6c-4-0.6-8.1-1.8-12-2.3
			c-0.2,0.5-0.4,0.9-0.6,1.4l-0.1,0.7c0.8,0.2,1.6,0.6,2.2,0.8L201.7,294.8z"/>
		<path d="M223.3,295.7c-3.3,2.1-5.2,5.7-6.8,9.1c-2.8,5.4-7.3,10-12.7,12.9c-0.2,0.1-0.3,0.3-0.2,0.5c0.1,0.2,0.3,0.3,0.5,0.2
			c1.3-0.6,2.5-1.3,3.7-2.1c1.4-0.6,3.1-1.6,4.4-2.3c1.7-0.8,3.4-1.6,5.1-2.4c0.3-0.1,0.2-0.7-0.2-0.6c-1.8,0.4-3.5,1.1-5.1,1.8
			c1.3-1.3,2.6-2.7,3.6-4.2c2.9-4,4.2-9.1,8-12.3C224.2,296.1,223.7,295.4,223.3,295.7z"/>
		<path d="M215.9,364.2c-0.2-0.1-0.4,0-0.6,0.2c-0.1,0.2,0,0.4,0.2,0.6c0.2,0.1,0.4,0,0.6-0.2C216.1,364.6,216.1,364.3,215.9,364.2z
			"/>
		<path d="M226.3,213.8c-0.3,0.1-0.7,0.2-1.1,0.3c2.7,2.8,4.9,5.5,7.1,8.7l2.1-1.8L226.3,213.8z"/>
		<path d="M184.6,289.5l10.3,3.1l0.5-2.7c-3.9-0.1-7.3-0.6-11.1-1.4C184.4,288.8,184.6,289.1,184.6,289.5z"/>
		<path d="M253,243.3c0.5-3.6,2.5-6.9,4.4-9.9c1.5-2.7,2.7-5.7,3.3-8.8c0.3,1.8,0.7,3.6,1.2,5.3c0.1,0.3,0.6,0.2,0.6-0.1
			c-0.3-1.9-0.5-3.8-0.7-5.6c-0.1-1.4-0.2-3.4-0.4-5c0-1.4,0-2.8-0.2-4.2c-0.1-0.5-0.8-0.4-0.8,0.1c0.3,4.9-0.6,9.9-2.5,14.4
			c-2,4.6-5.8,8.5-5.7,13.9C252.2,243.8,253,243.8,253,243.3z"/>
		<path d="M242.9,232.5c0.5-0.4,1.1-0.9,1.4-1.4c0.5-0.6,0.6-1.6,0.5-2.4l-4.9-3.3l-2.7-1.8c-0.6-0.4-1.3-0.9-1.9-1.4
			c-0.2,0.1-0.4,0.3-0.5,0.5c-0.3,0.5-0.5,0.9-0.8,1.3c2.6,3.1,5.7,5.9,8.4,8.9C242.6,232.8,242.7,232.7,242.9,232.5z"/>
		<path d="M445.6,278.1c-0.1,0-0.1,0.1-0.2,0.1c-0.4,0.2-0.9,0.4-1.5,0.4c-0.5,1.8,0.2,4,1.1,5.8c3.1-1.5,6.2-2.8,9.3-4.2
			c2.5-1.1,5.3-2.3,7.9-3.3c0.7-0.3,1.5-0.5,2.4-0.5c-0.3-1.1-0.6-2-0.7-3c-2.1,1.1-3.5,1.4-5,1.6c-3.2,0.4-6.5,0.9-9.7,1.4
			C448,276.9,446.8,277.5,445.6,278.1C445.6,278.1,445.6,278.1,445.6,278.1z"/>
		<path d="M202.8,278.1C202.8,278.1,202.7,278.1,202.8,278.1c-1.2-0.6-2.4-1.2-3.5-1.9c-3.3-0.5-6.5-1-9.7-1.4
			c-1.5-0.2-2.9-0.5-5-1.6c-0.1,1-0.4,2-0.7,3c0.9,0,1.6,0.2,2.4,0.5c2.6,1,5.4,2.2,7.9,3.3c3.1,1.4,6.2,2.8,9.3,4.2
			c0.9-1.8,1.6-4,1.1-5.8c-0.5,0-1-0.1-1.5-0.4C202.9,278.1,202.8,278.1,202.8,278.1z"/>
		<path d="M218.7,222.6C218.7,222.6,218.7,222.6,218.7,222.6c-1.3-1-2.6-1.9-3.8-3c-0.3,0.4-0.6,0.7-1,1c-0.3,0.2-0.6,0.4-0.9,0.6
			c-0.4,0.3-1,0.5-1.5,0.8c1.9,1.1,2.9,2,3.9,3c0.1,0.1,0.3,0.3,0.4,0.4c1.7,1.9,3.4,3.8,5.1,5.7c0.5,0.5,1,1.1,1.5,1.7
			c0.4,0.3,0.9,0.5,1.3,0.8c0.8,0.5,1.6,1,2.4,1.5c0.1,0,0.3,0.1,0.4,0.2c0,0,0.1,0,0.1,0c0,0,0.1,0.1,0.1,0.1
			c0.4,0.3,0.7,0.6,1,1.1c0,0,0,0,0,0c0.2-0.1,0.4-0.1,0.6-0.2c0.1,0,0.1-0.1,0.2-0.1c0.1-0.1,0.3-0.1,0.4-0.2
			c0.1,0,0.1-0.1,0.2-0.1c0.1-0.1,0.3-0.2,0.4-0.3c0,0,0.1-0.1,0.1-0.1c0.2-0.1,0.3-0.3,0.5-0.4c0.1-0.1,0.1-0.1,0.2-0.2
			c0.1-0.1,0.2-0.2,0.3-0.3c0.1-0.1,0.1-0.2,0.2-0.2c0.1-0.1,0.2-0.2,0.2-0.3c0.1-0.1,0.1-0.2,0.2-0.2l0,0c0.3-0.4,0.6-0.8,0.8-1.2
			c-2.8-2-5.6-4-8.4-6.1C222,225.1,220.3,223.8,218.7,222.6z"/>
		<path d="M214.7,239.7c0.5,0.3,0.9,0.7,1.3,1.3c2.4-2.6,4.6-4.4,6.6-5.4c0.2-0.1,0.4-0.2,0.6-0.3c-0.3-0.1-0.5-0.3-0.8-0.4
			c-0.1,0-0.2-0.1-0.3-0.1c-0.2-0.1-0.5-0.2-0.7-0.3c-1.2-0.6-2.4-1.1-3.2-1.6c-1.9-0.9-3.8-1.8-5.7-2.6
			c-11.1,10.5-18.5,23.8-21.1,38.9c0,0,0,0,0,0.1c3.2,2.1,6.5,4.1,9.7,6c-0.5-2.3-0.1-5.6,1-9.4c-0.6,0-1.2-0.1-1.7-0.4
			c-3.2-1.7-2.5-8.9,1.4-16.1C205.8,242.3,211.5,237.9,214.7,239.7z"/>
		<path d="M184.3,228.7c0.9,0.5,1.3,1.6,1.3,3.1c3-3.3,6.7-5.9,10.7-7.7c-2.5-0.7-5.1-1.2-7.7-1.5c-1.2-0.1-2.5-0.3-3.7-0.4
			c-0.1,0.1-0.2,0.2-0.3,0.3c-9.7,7-14.4,15.2-14.9,27.2c0,0.2,0,0.3-0.1,0.5c1.3,1.6,2.5,3.1,3.4,4.4c1.4,1.5,2.8,2.9,4.3,4.3
			c-0.4-3.1-0.4-6.2,0-9.3c0.2-1.4,0.4-2.9,0.8-4.2c-1.2,0.7-2.4,0.9-3.2,0.5c-2.1-1.1-1.7-5.9,0.9-10.6
			C178.4,230.4,182.2,227.5,184.3,228.7z"/>
		<path d="M197.5,233.1c1.5,0.8,2,3,1.5,5.9c3.1-3.8,6.9-7.2,11.1-9.7c-3.4-1.5-6.7-2.9-10.2-4.1c-0.1,0.1-0.1,0.1-0.2,0.2
			c-12.8,8.8-19.1,19.9-19.6,35.5c0,0.1,0,0.2,0,0.3c2.8,2.3,5.7,4.4,8.7,6.4c0-5,0.9-10,2.6-14.7c-2.1,1.8-4.2,2.5-5.6,1.7
			c-2.6-1.4-2.1-7.4,1.2-13.3C190.1,235.2,194.9,231.6,197.5,233.1z"/>
		<path d="M448.4,225.1c-3.5,1.2-6.9,2.6-10.2,4.1c4.2,2.6,8,5.9,11.1,9.7c-0.4-2.8,0.1-5.1,1.5-5.9c2.6-1.4,7.4,2.2,10.6,8.1
			c3.3,5.9,3.8,11.9,1.2,13.3c-1.4,0.8-3.5,0.1-5.6-1.7c0.5,1.4,0.9,2.8,1.2,4.2c0.8,3.5,1.4,6.9,1.3,10.5c3-2,5.9-4.1,8.7-6.4
			c0-0.1,0-0.2,0-0.3c-0.4-10.6-3.6-21.1-11.4-28.6c-2.5-2.5-5.3-4.9-8.3-6.9C448.5,225.2,448.5,225.2,448.4,225.1z"/>
		<path d="M417,233.3c0,0.1,0.1,0.1,0.1,0.2c0.1,0.1,0.2,0.2,0.3,0.4c0.1,0.1,0.1,0.2,0.2,0.2c0.1,0.1,0.2,0.2,0.3,0.3
			c0.1,0.1,0.2,0.2,0.2,0.3c0.1,0.1,0.2,0.2,0.3,0.3c0.1,0.1,0.2,0.2,0.3,0.3c0.1,0.1,0.2,0.1,0.3,0.2c0.1,0.1,0.2,0.2,0.3,0.2
			c0.1,0.1,0.2,0.1,0.2,0.2c0.1,0.1,0.3,0.2,0.4,0.2c0.1,0,0.1,0.1,0.2,0.1c0.2,0.1,0.4,0.2,0.6,0.2c0.1-0.2,0.3-0.5,0.5-0.7
			c0.2-0.2,0.4-0.3,0.6-0.5c0.1,0,0.2-0.1,0.3-0.1c0.1,0,0.1-0.1,0.2-0.1c0.6-0.4,1.2-0.8,1.8-1.1c0.6-0.4,1.2-0.7,1.9-1.1
			c2.2-2.5,4.5-4.9,6.6-7.4c1-1.1,2-2.2,4-3.3c0.1,0,0.1-0.1,0.2-0.1c-0.6-0.3-1.1-0.6-1.5-0.8c-0.6-0.3-1.1-0.7-1.5-1.2
			c-0.1-0.1-0.2-0.3-0.3-0.4c-0.3,0.3-0.6,0.5-0.9,0.8c-0.4,0.3-0.8,0.6-1.2,0.9c-0.6,0.4-1.1,0.8-1.7,1.3c-1.8,1.4-3.7,2.8-5.6,4.2
			c-1.8,1.4-3.7,2.7-5.5,4c0,0,0,0,0,0c0,0,0,0,0,0c-0.7,0.5-1.5,1.1-2.2,1.6c0.1,0.2,0.2,0.4,0.3,0.5l0,0
			C416.8,233,416.9,233.2,417,233.3z"/>
		<path d="M186.5,197.6c0,0,6.4,3.5,6.4,3.5c0.5,0.2,1,0.3,1.4,0.2c0,0.1,0.1,0.2,0.2,0.4c0,0,3.6,5.3,4.1,6
			c-0.3,1.3,0.2,2.6,1.3,3.5c1.8,1.4,3.5,2.9,5.1,4.5c1.6,1.6,3.2,3.2,4.6,5c0.1,0.1,0.2,0.2,0.3,0.3c0.1-0.2,0.3-0.4,0.4-0.5
			c0.6-0.7,1.3-1.4,2-2c0.4-0.3,0.8-0.6,1.1-0.8c0.2-0.1,0.4-0.2,0.6-0.3c-0.1-0.2-0.2-0.3-0.4-0.5c-3.2-3.2-6.4-6.4-8.9-10.2
			c-0.6-1-1.6-1.5-2.7-1.5c0,0-0.1-0.1-0.1-0.1l-0.8-0.7c0.1-0.2,0.2-0.4,0.2-0.6l-0.3-2.7c0-0.4-0.7-0.5-0.8,0
			c0,0.1-0.3,1.3-0.4,2.1l-0.9-0.9c0.1-0.1,0.2-0.3,0.2-0.6l-0.3-2.7c0-0.4-0.7-0.5-0.8,0c0,0.1-0.2,1.2-0.4,2l-0.9-0.9c0,0,0,0,0,0
			c0.1-0.3,0.2-0.6,0.2-0.9l0.2-9.3c0.1-1.1-1.6-1.4-1.9-0.3c0,0-1.8,5.3-2.6,7.6l-5.3-1.3C186.1,195.5,185.5,197.1,186.5,197.6z"/>
		<path d="M463.4,222.1c-1.2,0.1-2.5,0.2-3.7,0.4c-2.6,0.3-5.2,0.8-7.7,1.5c4,1.8,7.7,4.5,10.7,7.7c0-1.5,0.4-2.6,1.3-3.1
			c2.1-1.1,5.9,1.7,8.4,6.4c2.6,4.7,3,9.4,0.9,10.6c-0.9,0.5-2,0.3-3.2-0.5c0.4,1.4,0.6,2.8,0.8,4.2c0.4,3.1,0.4,6.2,0,9.3
			c1.5-1.4,3-2.8,4.3-4.3c1-1.2,2.1-2.7,3.4-4.4c-0.1-0.1-0.1-0.3-0.1-0.5c-0.5-8.1-2.8-16.1-8.7-21.8c-1.9-1.9-4.1-3.8-6.3-5.5
			C463.5,222.3,463.5,222.2,463.4,222.1z"/>
		<path d="M219.2,349.3c-1.2,4.3-2.2,8.6-3.1,13c0,0.2,0.1,0.4,0.2,0.4c0.2,0.1,0.4-0.1,0.4-0.2c1.6-5.7,3.3-11.3,5-16.9
			c5.4-16.8,11.1-33.6,14.7-51c0.1-0.5-0.7-0.7-0.8-0.2c-1.6,5.7-3.2,11.3-4.8,17c-2.6,8.9-5.5,17.8-8.3,26.7
			c-2.1,5.4-4.4,10.9-8,15.5c-0.6-0.1-1.2-0.2-1.7-0.5c-0.8-0.6-1.5-1.5-2.3-2.2c-0.1-0.1-0.3-0.2-0.4-0.2c0,0,0-0.1,0-0.1
			c0.8-2,2.1-3.9,3.4-5.7c0.3-0.3-0.3-0.8-0.5-0.4c-1.8,2-3.5,4.3-4.6,6.8c-1.3,2.4-3.9,3.5-5.8,5.4c-1.3,1.4-2.4,2.9-3.3,4.5
			c-0.3,0.4,0.4,0.9,0.7,0.5c1.1-1.4,2.4-2.7,3.6-3.9c1.3-1.2,3.1-2,4.3-3.4c0.7-0.8,1.3-1.7,1.8-2.6c0.6,1,1.3,2.2,2.4,2.8
			c0.4,0.2,0.9,0.3,1.3,0.3c-0.8,1-1.7,1.9-2.7,2.7c-0.2,0.1-0.2,0.3-0.1,0.5c0.1,0.2,0.3,0.2,0.5,0.1
			C214.6,355.9,217.2,352.8,219.2,349.3z"/>
		<path d="M405.5,232.5c0.2,0.1,0.3,0.2,0.5,0.4c2.7-3,5.8-5.9,8.4-8.9c-0.3-0.4-0.6-0.8-0.8-1.3l-0.5-0.5c-0.6,0.5-1.3,1-1.9,1.4
			l-2.7,1.8l-4.9,3.3c-0.1,0.8,0,1.9,0.5,2.4C404.4,231.6,405,232.1,405.5,232.5z"/>
		<path d="M423.1,214.1c-0.4-0.1-0.8-0.1-1.1-0.3l-8.1,7.1l2.1,1.8C418.2,219.6,420.4,216.9,423.1,214.1z"/>
		<path d="M396.2,243.2c0-3.9-2-7.5-4.1-10.6c-3-5.3-4.5-11.5-4.2-17.6c0-0.2-0.1-0.4-0.3-0.4c-0.2,0-0.4,0.1-0.4,0.3
			c-0.2,1.4-0.3,2.8-0.2,4.3c-0.2,1.6-0.3,3.5-0.4,5c-0.2,1.9-0.5,3.7-0.7,5.6c-0.1,0.3,0.5,0.5,0.6,0.1c0.6-1.7,1-3.5,1.2-5.3
			c0.4,1.8,0.9,3.6,1.6,5.3c1.8,4.5,5.4,8.4,6.1,13.4C395.3,243.8,396.2,243.8,396.2,243.2z"/>
		<path d="M482.8,223.6c-2.1-1.2-4.9-1.5-7.4-1.7c-2.3-0.2-4.6-0.2-7-0.1c7.2,3.5,12.6,10.8,13.2,18.9c0.1,0.8,0.2,3.1,0,5.3
			C487.2,238.2,491.9,228.6,482.8,223.6z"/>
		<path d="M354.7,215.3c11.4,13.6,22.5,27.3,35.3,39.6c0.4,0.4,0.9-0.2,0.6-0.6c-4-4.4-7.9-8.8-11.8-13.1
			c-6.6-7.2-12.6-14.9-19-22.3c-3-4.1-5.9-8.5-7.6-13.2c0,0,0,0,0,0c0.6-0.5,1-1.2,1.8-1.4c0.7-0.2,1.6-0.3,2.4-0.5
			c0,0.1,0.1,0.1,0.1,0.2c1.3,1.7,2.1,3.9,3,5.9c0.1,0.4,0.8,0.2,0.7-0.2c-0.7-2.6-1.8-5.2-3.3-7.5c-1.3-2.4-0.9-5.2-1.5-7.7
			c-0.5-1.8-1.2-3.5-2-5.2c-0.2-0.5-0.9-0.2-0.8,0.3c0.6,1.7,1.1,3.4,1.4,5.2c0.3,1.8,0,3.7,0.6,5.4c0.2,0.8,0.5,1.6,1,2.4
			c-1.5,0-3,0.4-3.8,1.6c-0.4-1.3-0.7-2.7-1-4.1c0-0.2-0.2-0.4-0.4-0.4c-0.2,0-0.4,0.2-0.4,0.4c0.1,4,1.3,7.7,3,11.2
			c-3.1-3.3-6.2-6.5-9.4-9.7c-0.1-0.1-0.3-0.1-0.5,0c-0.1,0.1-0.2,0.3,0,0.5C347,206.5,350.9,210.9,354.7,215.3z"/>
		<path d="M429.1,233.4c-0.3,0.1-0.6,0.3-0.9,0.4c-0.1,0-0.1,0.1-0.2,0.1c-0.3,0.2-0.6,0.3-1,0.5c-0.2,0.1-0.5,0.2-0.7,0.4
			c-0.1,0-0.2,0.1-0.2,0.1c-0.3,0.1-0.6,0.3-0.9,0.4c0.2,0.1,0.4,0.2,0.6,0.3c0.2,0.1,0.3,0.2,0.5,0.2c0,0,0,0,0,0l0,0
			c1.9,1,4,2.7,6.1,5.1c0.3-0.6,0.7-1,1.3-1.3c3.2-1.7,8.9,2.6,12.9,9.8c3.9,7.1,4.6,14.3,1.4,16.1c-0.5,0.3-1.1,0.4-1.7,0.4
			c1.1,3.8,1.4,7.1,1,9.4c3.2-2,6.5-4,9.7-6c0,0,0,0,0-0.1c-2.1-11.1-6.4-21.8-13.6-30.6c-2.3-2.9-4.8-5.7-7.5-8.3
			c-1.9,0.9-3.8,1.8-5.7,2.6C429.8,233.1,429.5,233.2,429.1,233.4L429.1,233.4C429.1,233.4,429.1,233.4,429.1,233.4z"/>
		<path d="M179.8,221.8c-2.3-0.1-4.6-0.1-6.9,0.1c-2.5,0.2-5.3,0.5-7.4,1.7c-9.1,5-4.4,14.6,1.1,22.4
			C165.5,236.2,170.9,226.1,179.8,221.8z"/>
		<path d="M415.8,396.4c0.2,0,0.4-0.2,0.4-0.4c0-0.2-0.2-0.4-0.4-0.4c-0.2,0-0.4,0.2-0.4,0.4C415.4,396.2,415.6,396.4,415.8,396.4z"
			/>
		<path d="M354.3,466.7c-0.4-0.8-0.6-1.6-0.7-2.3c-0.4-2.7-0.7-5.8-0.9-8.5c-0.3-3.4-0.6-6.8-0.8-10.2c-2,0.1-4.2,0.5-5.5,1.8
			c0.3,0.5,0.4,1,0.4,1.5c0,0.2,0,0.3-0.1,0.5c0.1,1.3,0.1,2.7,0.2,4c1.1,3,2.2,6,3.3,8.9c0.5,1.4,1,2.8,1,5.2
			C352.2,467.1,353.1,466.9,354.3,466.7z"/>
		<path d="M451,290.6c-4,0.5-8,1.7-12,2.3c0,0.2,0,0.4,0.1,0.6c0.1,0.6,0.2,1.4,0.4,1.9c0.2,0.7,1,1.4,1.8,1.7l5.4-2.4l2.9-1.3
			c0.7-0.2,1.4-0.6,2.2-0.8c0-0.2-0.1-0.5-0.1-0.7C451.4,291.5,451.2,291.1,451,290.6z"/>
		<path d="M453.4,292.5l10.3-3.1c0-0.3,0.2-0.7,0.4-1.1c-3.8,0.8-7.3,1.3-11.1,1.4L453.4,292.5z"/>
		<path d="M358.7,487.5c0.8,1.1,1.6,2.2,2.2,3.3c-0.1-1.5-0.3-3-0.4-4.5L358.7,487.5z"/>
		<path d="M332.2,489.2c0,2.4-4.3,4.3-9.7,4.3c-5.4,0-9.7-1.9-9.7-4.3c0-1,0.8-1.9,2-2.6c-4.4-1-8.6-3-12.3-5.8c0.5,2,1,3.9,1.7,5.9
			c0.6,1.4,1.3,3.2,2.2,5.1c0.2,0,0.3,0.1,0.5,0.2c7.3,3.5,15.4,5.3,23.3,2.9c2.6-0.7,5.3-1.7,7.8-2.9c0.1,0,0.2-0.1,0.3-0.1
			c0.5-1.1,1-2.3,1.5-3.4c1-2.4,1.7-4.9,2.3-7.4c-3.6,2.7-7.7,4.6-11.9,5.6C331.4,487.3,332.2,488.2,332.2,489.2z"/>
		<path d="M334.7,475.5c0,3-5.5,5.4-12.2,5.4s-12.2-2.4-12.2-5.4c0-1.6,1.6-3.1,4.2-4.1c-4.9-0.8-9.7-2.5-14.1-4.9
			c0.3,3.6,0.8,7.2,1.4,10.7c0.1,0,0.2,0.1,0.3,0.1c13.8,7.1,26.7,6.9,40.5,0c0.1-0.1,0.2-0.1,0.3-0.1c0.7-3.6,1.1-7.2,1.4-10.9
			c-4.3,2.5-9,4.2-13.9,5C333,472.3,334.7,473.8,334.7,475.5z"/>
		<path d="M337.2,457.3c0,3.6-6.6,6.5-14.8,6.5c-8.1,0-14.8-2.9-14.8-6.5c0-0.6,0.2-1.1,0.5-1.7c-3.9-0.9-7-2.2-8.7-3.7
			c0.2,3.8,0.3,7.6,0.6,11.4c0,0,0,0,0.1,0c14.4,5,29.8,4.9,44.3,0.3c0.2-3.4,0.4-6.8,0.6-10.2c0-0.3,0-1,0.1-1.6
			c-1.7,1.4-4.7,2.7-8.4,3.6C337,456.1,337.2,456.7,337.2,457.3z"/>
		<path d="M432,364.2c-0.2,0.1-0.3,0.4-0.2,0.6c0.1,0.2,0.4,0.3,0.6,0.2c0.2-0.1,0.3-0.4,0.2-0.6C432.4,364.2,432.2,364.1,432,364.2
			z"/>
		<path d="M420.3,410.5c-1.8-0.3-3.5-0.7-5.2-1.3c-1.7-0.6-3.2-1.8-5-2.1c-0.4-0.1-0.8-0.2-1.2-0.2c-0.4,0-0.7-0.1-1.1-0.1
			c0,0-0.1,0-0.1,0l0,0l0,0c0.1-0.2,0.2-0.4,0.3-0.6c0.4-0.7,0.6-1.4,0.6-2.3c0-0.4-0.2-0.8-0.3-1.2c1.2,0.3,2.4,0.6,3.6,1
			c0.2,0.1,0.4,0,0.5-0.1c0.1-0.2,0-0.4-0.1-0.5c-3.5-1.8-7.3-2.6-11.2-2.7c0,0,0,0,0,0h0h0c0,0,0,0,0,0c0,0,0,0,0,0l0,0
			c4.3-1,8.6-2.2,12.9-3.5c0.2-0.1,0.3-0.2,0.2-0.4c0-0.2-0.2-0.3-0.4-0.3c-4.7,1.1-9.4,2.1-14.1,3.1l0,0c-1.1,0.2-2.1,0.5-3.2,0.7
			c-17.4,3.4-34.8,6.6-51.7,11.8c-0.5,0.1-0.3,0.9,0.2,0.8c5.7-1.4,11.5-2.7,17.2-4c9.3-2.1,18.8-3.8,28.1-5.8c0.1,0,0.2,0,0.2,0
			l0,0c0.1,0,0.2,0,0.2,0c0.8-0.1,1.6-0.2,2.4-0.3c0.2,0,0.5-0.1,0.7-0.1c0.4,0,0.8-0.1,1.1-0.1c0.2,0,0.4,0,0.5,0
			c1.5-0.1,2.9-0.2,4.4-0.2c0,0,0,0,0,0c0.5,0,0.9,0,1.4,0c0.1,0,0.2,0,0.3,0c0.5,0,0.9,0,1.4,0.1c0,0,0,0,0,0l0,0
			c1.2,0.1,2.4,0.2,3.5,0.4c0.2,0.7,0.5,1.3,0.3,2c-0.1,0.2-0.1,0.4-0.2,0.7l0,0c0,0,0,0,0,0c-0.1,0.3-0.2,0.6-0.3,0.9
			c-0.1,0.3-0.2,0.6-0.3,0.8c-0.2,0-0.3,0.1-0.5,0.1c-2.2,0.3-4.4,0-6.6-0.2c-0.1,0-0.1,0-0.1,0c-0.2,0-0.3,0.2-0.2,0.4
			c0,0.1,0.1,0.2,0.3,0.3c0.7,0.2,1.3,0.3,2,0.4c0.7,0.1,1.4,0.2,2,0.3c1.4,0.1,2.8,0.1,4.1,0c0,0,0,0,0,0c0.3,0,0.6,0,0.9,0.1
			c0.1,0,0.1,0,0.2,0c0.6,0.1,1.2,0.3,1.7,0.5c0.1,0,0.1,0,0.2,0.1c0.7,0.3,1.4,0.6,2,0.9c0.8,0.4,1.6,0.7,2.5,0.9
			c1.8,0.5,3.7,0.7,5.5,0.8C420.7,411.3,420.8,410.5,420.3,410.5z"/>
		<path d="M360.6,450c1.8,3.4,3,6.7,4.1,10.4c0.3-0.4,0.5-0.6,0.8-0.8l-2.3-10.5L360.6,450z"/>
		<path d="M352.2,422.7c3.5,1.9,7.5,1.8,11.3,1.6c6.1-0.1,12.3,1.6,17.4,4.9c0.2,0.1,0.4,0.1,0.5-0.1c0.1-0.2,0.1-0.4-0.1-0.5
			c-1.1-0.8-2.4-1.6-3.6-2.2c-1.2-1-2.9-2-4.1-2.8c-1.5-1.1-3.1-2.2-4.6-3.3c-0.3-0.2-0.6,0.2-0.4,0.4c1.2,1.3,2.6,2.5,4.1,3.6
			c-1.8-0.5-3.6-0.9-5.5-1.2c-4.8-0.6-10,0.7-14.7-1.1C352.1,421.7,351.7,422.5,352.2,422.7z"/>
		<path d="M362.5,447.6c-0.2-0.8-0.2-1.7-0.3-2.4c0,0-0.3-3.2-0.3-3.2l-0.5-5.8c-0.7-0.5-1.6-0.9-2.4-0.7c-0.6,0.1-1.3,0.4-1.9,0.6
			c-0.2,0.1-0.4,0.1-0.6,0.2c1.4,3.8,2.3,7.9,3.8,11.6c0.5-0.1,1-0.1,1.5-0.1L362.5,447.6z"/>
		<path d="M440.7,353.2c-0.9-0.9-1.7-1.9-2.1-3.1c-1-2.2-2.5-3.9-4-5.7c-0.3-0.3-0.8,0.1-0.5,0.4c1.1,1.5,2.1,3,2.9,4.5
			c0.2,0.4,0.3,0.9,0.5,1.3c-0.1,0-0.1,0.1-0.2,0.1c-0.8,0.7-1.4,1.7-2.2,2.2c-0.4,0.2-0.8,0.3-1.3,0.4c-3.3-4.3-5.6-9.4-7.6-14.6
			c-1.1-3.6-2.2-7.1-3.4-10.6c-3.7-11.2-6.8-22.5-10-33.9c-0.1-0.5-0.9-0.3-0.8,0.2c1.3,5.8,2.7,11.5,4.2,17.2
			c2.9,11.4,7.1,22.5,10.5,33.8c1.7,5.6,3.4,11.3,5,16.9c0,0.2,0.2,0.3,0.4,0.2c0.2,0,0.3-0.2,0.3-0.4c-1-4.4-2-8.7-3.2-13
			c1.1,1.9,2.3,3.6,3.7,5.2c0,0,0.1,0.1,0.1,0.1c1.2,1.3,2.6,2.6,4.2,3.6c0.4,0.2,0.8-0.3,0.4-0.6c-1-0.9-1.9-1.8-2.8-2.8
			c0,0,0,0,0,0c1.5-0.2,2.4-1.6,3.1-2.8c0.9,1.7,2.1,3.2,3.8,4.3c2.3,1.3,4,3.4,5.7,5.4c0.3,0.4,0.9-0.1,0.7-0.5
			C446.3,357.7,443.7,355.6,440.7,353.2z"/>
		<path d="M308.4,496.3c4.2,8.6,10.3,17.3,19.1,11.8c2.1-1.2,3.7-3.6,5.1-5.6c1.2-1.9,2.4-3.9,3.4-6
			C327.9,502.2,316.5,502,308.4,496.3z"/>
		<path d="M430.6,305.4c1.5,2.8,3.4,5.3,5.7,7.5c-1.7-0.7-3.4-1.4-5.1-1.8c-0.3-0.1-0.5,0.4-0.2,0.6c1.7,0.8,3.5,1.6,5.1,2.4
			c1.3,0.7,3,1.7,4.4,2.3c1.2,0.8,2.4,1.5,3.7,2.1c0.4,0.2,0.8-0.5,0.3-0.7c-4.3-2.3-8-5.8-10.8-9.8c-2.8-4.1-4.1-9.4-8.7-12.2
			c-0.5-0.3-0.9,0.4-0.5,0.7C427.3,298.7,429.1,302.2,430.6,305.4z"/>
		<path d="M357,476.6c-0.9-2.5-1.8-5.1-2.5-7.7c-1,0.6-2,0.6-3.4,0.7c1.9,5.3,3.7,10.4,5.5,15.5l1.2,0.1l2.5-1
			C359,481.8,358,479.2,357,476.6z"/>
		<path d="M163.6,272.2l-0.1-2.1c-1.4,0.2-2.7,0.3-4,0.3C160.8,271,162.2,271.6,163.6,272.2z"/>
		<path d="M284.2,447.9c1.4-3.7,2.4-7.8,3.8-11.6c-0.2-0.1-0.4-0.2-0.6-0.2c-0.6-0.2-1.3-0.5-1.9-0.6c-0.8-0.2-1.7,0.2-2.4,0.7
			l-0.5,5.8l-0.3,3.2c-0.1,0.7-0.1,1.6-0.3,2.3c0.2,0.1,0.4,0.2,0.7,0.2C283.2,447.8,283.7,447.8,284.2,447.9z"/>
		<path d="M165.4,273.1c2.8,0,5.6,0.4,8.3,0.8c2.7,0.4,5.3,0.9,8,1.5c0-1.1,0.4-2,1-3.3c-5.5-0.9-10.9-1.8-16.2-2.7l-0.7,1
			L165.4,273.1z"/>
		<path d="M228.9,396.4c0.2,0,0.4-0.2,0.4-0.4c0-0.2-0.2-0.4-0.4-0.4c-0.2,0-0.4,0.2-0.4,0.4C228.4,396.2,228.6,396.4,228.9,396.4z"
			/>
		<path d="M484.9,270.1c0,0.4-0.1,1.3-0.1,2.1c1.4-0.6,2.7-1.2,4.1-1.8C487.6,270.4,486.3,270.3,484.9,270.1z"/>
		<path d="M292.3,422.7c0.5-0.2,0.1-1-0.4-0.8c-3.4,1.2-7.2,1.1-10.8,0.9c-3.1,0-6.3,0.4-9.3,1.4c1.5-1.1,2.8-2.3,4.1-3.6
			c0.2-0.3-0.1-0.7-0.4-0.4c-1.5,1.1-3,2.3-4.6,3.3c-1.2,0.8-2.9,1.8-4.1,2.8c-1.3,0.7-2.5,1.4-3.6,2.2c-0.4,0.3,0,0.9,0.4,0.6
			c4.1-2.6,9-4.2,13.8-4.7C282.4,423.9,287.7,425.3,292.3,422.7z"/>
		<path d="M482.9,273.1l-0.4-2.7l-0.7-1c-5.3,1-10.7,1.8-16.2,2.7c0.6,1.3,1,2.2,1,3.3C472,274.2,477.4,273.2,482.9,273.1z"/>
		<path d="M279.8,460.4c1.1-3.7,2.4-7,4.2-10.4l-2.6-0.9l-2.3,10.5C279.3,459.8,279.6,460,279.8,460.4z"/>
		<path d="M283.6,490.8c0.6-1.1,1.4-2.2,2.2-3.3c-0.1-0.1-0.9-0.6-1.8-1.1C283.9,487.8,283.8,489.3,283.6,490.8z"/>
		<path d="M284.1,484.3l0.4,0.2c0.7,0.3,1.4,0.5,2.3,0.8l1.1-0.1c1.7-5.1,3.6-10.2,5.5-15.5c-1.4-0.1-2.4-0.2-3.4-0.7
			C288.4,474.1,286.8,479.4,284.1,484.3z"/>
		<path d="M299.6,411.7c-5.7-1.6-11.4-3.2-17.1-4.6c-11.4-3-23.1-4.7-34.6-7.2c-3.4-0.7-6.7-1.4-10.1-2.2c0,0,0,0,0,0l0,0
			c-2.4-0.5-4.8-1.1-7.2-1.6c-0.2,0-0.4,0.1-0.4,0.2c-0.1,0.2,0,0.4,0.2,0.4c2.1,0.6,4.2,1.2,6.3,1.8h0c2.2,0.6,4.4,1.2,6.6,1.7
			c-1,0-2,0.1-3,0.2c-3,0.3-5.9,1.1-8.6,2.5c0,0-0.1,0.1-0.1,0.1c-0.1,0.1-0.1,0.2-0.1,0.2c0,0,0,0,0,0c0,0,0,0.1,0,0.1
			c0,0,0,0.1,0.1,0.1c0.1,0.1,0.1,0.1,0.2,0.1c0,0,0,0,0,0c0,0,0.1,0,0.1,0c1.3-0.5,2.7-0.9,4.1-1.1c0.1,0,0.1,0,0.2,0l0,0l0,0
			c-0.1,0.2-0.2,0.4-0.2,0.6c-0.1,0.2-0.1,0.4-0.1,0.7c0,1.1,0.4,2,1,2.9l0,0l0,0c-0.8,0-1.6,0-2.4,0.1c-0.2,0-0.4,0.1-0.6,0.1
			c-0.2,0-0.4,0.1-0.5,0.1c-1.6,0.4-3,1.4-4.5,2c-0.2,0.1-0.4,0.1-0.6,0.2c-1.5,0.5-3,0.8-4.6,1.1c0,0,0,0-0.1,0c0,0-0.1,0-0.1,0
			c-0.1,0.1-0.2,0.2-0.2,0.4c0,0,0,0,0,0c0,0.2,0.2,0.4,0.4,0.4c1.7,0,3.2-0.2,4.8-0.6c1.9-0.5,3.8-1.3,5.8-2.1c0.1,0,0.2,0,0.3-0.1
			c1.1-0.3,2.2-0.5,3.4-0.3c0,0,0,0,0,0l0,0c0,0,0.1,0,0.1,0c2.4,0.2,4.7-0.3,6.9-0.8c0.4-0.1,0.3-0.7-0.1-0.7
			c-1.8,0.2-3.6,0.4-5.4,0.4c-0.4,0-0.8-0.1-1.1-0.1c-0.1-0.2-0.1-0.4-0.2-0.6s-0.1-0.4-0.2-0.6c-0.1-0.4-0.3-0.8-0.4-1.2
			c-0.1-0.3,0-0.7,0-1c0.1-0.4,0.2-0.7,0.3-1.1l0,0l0,0c0,0,0,0,0,0c0.6-0.1,1.1-0.1,1.7-0.2c0.2,0,0.5,0,0.7-0.1
			c0.3,0,0.6,0,0.9-0.1c0.7,0,1.4-0.1,2.1-0.1c0,0,0,0,0,0l0,0c3.5,0,7.1,0.4,10.6,0.8c3.6,0.8,7.3,1.5,10.9,2.1
			c11.6,2.2,23,4.9,34.5,7.6C299.9,412.6,300.1,411.8,299.6,411.7z"/>
		<path d="M282.6,492.6C282.6,492.5,282.7,492.5,282.6,492.6L282.6,492.6z"/>
		<path d="M293.6,445.7c-0.3,0-0.6-0.1-1-0.1c-0.2,3.4-0.5,6.8-0.8,10.2c-0.2,2.7-0.5,5.8-0.9,8.5c-0.1,0.8-0.3,1.6-0.7,2.3
			c1.1,0.2,2.1,0.5,3,0.9c0-2.4,0.5-3.7,1-5.2c1.2-3,2.3-6.1,3.4-9.2c0-1.3,0-2.6,0-4c0,0,0,0,0,0c0-0.1,0-0.1,0-0.2
			c0-0.2,0-0.5,0.1-0.7C296.5,447.5,295.1,446.6,293.6,445.7z"/>
		<path d="M522.6,254.2c-10.6-27.9-26.5-42.3-48.1-43c-21.5-0.7-36.8,14.8-36.8,14.8l-2.4,2.1c0.3-0.2,0.7-0.3,1-0.5
			c9.7-4.7,20.3-7.7,31.1-7.6c5.3,0,11.7-0.1,16,2.2c7,3.5,7.3,11.4,3.9,17.5c-2.8,5.8-6.5,11-10.5,16c-6.1,7-13.8,12.4-21.7,17.1
			c1.7-0.4,3.4-0.8,5.1-1.2c1.5-0.4,3.1-0.7,4.3-0.5c5.7-1.4,11.6-2.8,17.6-4c0.4-0.1,0.9,0.1,1.1,0.4c0.1,0.2,0.3,0.3,0.5,0.6
			c2.6-0.3,5.4-0.4,8.2-0.2c0.1-0.2,0.2-0.4,0.4-0.6c0.1-0.1,0.3-0.2,0.4-0.3l6.4-3.5c1-0.6,2,0.8,1.2,1.6l-4.6,4.5
			c1.4,1.7,5.4,6.6,5.4,6.6c0.7,0.8-0.4,2.1-1.3,1.4l-7.7-5.1c-0.2-0.1-0.3-0.3-0.5-0.4c-0.4,0.1-0.8,0.2-1.2,0.3
			c0.6,0.5,1.2,1.1,1.2,1.1c0.3,0.3-0.1,0.9-0.5,0.7l-2.4-1.2c-0.1,0-0.1-0.1-0.2-0.1c-0.4,0.1-0.7,0.2-1.1,0.3
			c0.5,0.5,1.1,1.1,1.1,1.1c0.3,0.3-0.1,0.9-0.5,0.7l-2.4-1.2c0,0,0,0-0.1,0c-0.4,0.1-0.7,0.2-1.1,0.3c-0.1,0.3-0.3,0.5-0.6,0.6
			c-5.9,1.8-12.1,2.2-18.2,2.6c-0.1,0-0.2,0-0.3,0c-0.6,0.9-1.5,1.5-2.3,1.8c-5.9,3-12.1,5.6-18.3,8.2c-0.6,0.2-1.1,0-1.4-0.4
			c-0.1,0-0.1,0-0.1,0c-1.1,0.1-1.9-0.4-2.7-0.8c-1.5-0.8-3-1.7-4.5-2.6c0.4-0.7,0.8-1.3,1.1-2c1.6,0.7,3.1,1.5,4.7,2.3
			c0.1,0,0.2,0.1,0.3,0.1c-0.6-1.8-0.8-3.9-0.1-5.7c-1-0.4-2-1-3.1-1.8c1.3-6.3,0.2-13.7-3.6-20.5c-3.8-6.8-9.5-11.7-15.5-14
			c0-0.4-0.1-0.9-0.1-1.3c0,0,0,0,0,0c0-0.3,0-0.5,0-0.8c0-0.1,0-0.1,0-0.2c0-0.2,0-0.4,0-0.6c0-0.2,0.1-0.5,0.1-0.7c0,0,0,0,0,0
			c-1.8-0.4-3.5-1.7-4.7-3.1c0,0.1,0,0.2,0,0.3c-0.1,1.7-0.3,3.4-0.6,5.1c-0.4,0-0.7-0.1-1.1-0.1c0,0-0.1,0-0.1,0
			c-0.4,0-0.8,0-1.1,0c-0.8,0-1.6,0.1-2.5,0.2c0.8-0.9,1.7-1.9,2.5-2.8c0-0.8,0.1-1.7,0.1-2.5c0.1-0.9,0-1.9,0.8-2.8
			c0,0,0.1-0.1,0.1-0.1c-0.1-0.5,0-0.9,0.4-1.4c4.3-3.3,8.7-6.6,13.1-9.7c3-3.5,5.5-6.3,7.2-8.4c0,0,8.9-10.1,5.9-31.1
			c-3-21-25.5-37.4-47.7-47.2c-22.2-9.8-43.1-16.1-71.3-16.4c-28.2-0.3-42.1,4.6-70.3,15.1s-45.8,28.9-46.5,50.2
			c-0.6,18.8,11.5,32.8,14.3,35.8c0.6,0.4,1.1,0.8,1.7,1.2c4.8,3.4,9.6,6.8,14.3,10.5c0.5,0.3,0.7,0.9,0.5,1.4c0,0,0,0.1,0.1,0.1
			c0.7,0.9,0.7,1.8,0.8,2.8c0.1,1.3,0.1,2.5,0.1,3.8l1.2,1.4c-0.4,0-0.8-0.1-1.2-0.1c-0.8,0-1.5,0.1-2.3,0.1
			c-0.1-0.8-0.2-1.6-0.3-2.4c-0.1-0.9-0.2-1.8-0.3-2.7c0-0.1,0-0.2,0-0.3c-0.2,0.3-0.5,0.5-0.7,0.8c0,0,0,0,0,0
			c-0.1,0.1-0.3,0.3-0.5,0.4c0,0-0.1,0.1-0.1,0.1c-0.1,0.1-0.3,0.2-0.4,0.4c0,0-0.1,0.1-0.1,0.1c-0.1,0.1-0.3,0.2-0.4,0.3
			c-0.1,0-0.1,0.1-0.2,0.1c-0.1,0.1-0.2,0.2-0.4,0.2c-0.1,0.1-0.2,0.1-0.3,0.1c-0.1,0.1-0.2,0.1-0.3,0.2c-0.1,0.1-0.2,0.1-0.4,0.2
			c-0.1,0-0.2,0.1-0.2,0.1c-0.2,0.1-0.4,0.1-0.6,0.2c0,0.2,0.1,0.5,0.1,0.7c0,0.2,0,0.3,0,0.5c0,0.1,0,0.2,0,0.3c0,0.2,0,0.4,0,0.7
			c0,0,0,0.1,0,0.1c0,0.3,0,0.5,0,0.8c0,0,0,0,0,0l0,0c0,0.2,0,0.3,0,0.5c-6,2.3-11.7,7.2-15.5,14c-3.8,6.8-4.9,14.2-3.6,20.5
			c-1.1,0.8-2.1,1.4-3.1,1.8c0.6,1.8,0.4,3.9-0.1,5.7c0.1,0,0.2-0.1,0.3-0.1c1.5-0.8,3.1-1.6,4.7-2.3c0.3,0.7,0.7,1.4,1.1,2
			c-1.5,0.9-2.9,1.8-4.5,2.6c-0.8,0.5-1.6,1-2.7,0.8c0,0-0.1,0-0.1,0c-0.3,0.4-0.8,0.6-1.4,0.4c-6.1-2.6-12.3-5.2-18.3-8.2
			c-0.9-0.4-1.7-1-2.3-1.9c-0.1,0-0.2,0-0.3,0c-6.1-0.3-12.3-0.8-18.2-2.6c-0.3-0.1-0.5-0.3-0.6-0.6c-0.4-0.1-0.7-0.2-1.1-0.3
			c-0.6,0.3-2.4,1.2-2.5,1.2c-0.4,0.2-0.8-0.4-0.5-0.7l1.1-1.1c-0.4-0.1-0.7-0.2-1.1-0.3c-0.4,0.2-2.5,1.2-2.6,1.3
			c-0.4,0.2-0.8-0.4-0.5-0.7l1.2-1.1c-0.4-0.1-0.8-0.2-1.2-0.4c-0.1,0.1-0.3,0.3-0.5,0.4l-7.7,5.1c-0.9,0.6-2-0.6-1.3-1.4l5.4-6.6
			c-1.4-1.4-4.6-4.5-4.6-4.5c-0.8-0.8,0.2-2.1,1.2-1.6l6.4,3.5c0.4,0.3,0.7,0.6,0.9,0.9c2.8-0.1,5.6-0.1,8.1,0.2l0.5-0.6
			c0.3-0.3,0.7-0.5,1.1-0.4c5.9,1.3,11.8,2.7,17.6,4c1.2-0.2,2.8,0.1,4.3,0.5c1.7,0.4,3.4,0.8,5.1,1.2c-8-4.7-15.6-10.1-21.7-17.1
			c-4-5-7.7-10.2-10.5-16c-3.4-6.1-3.1-14,3.9-17.5c4.4-2.3,10.8-2.2,16-2.2c10.8-0.1,21.4,2.9,31.1,7.6c0.3,0.1,0.6,0.3,1,0.5
			c-5-4.3-9.2-7.7-11.9-9.9c0,0-10.9-10.2-32.1-7.3c-21.2,3-34.8,22.6-44.7,44.6c-9.9,22-16.2,42.6-16.6,70.5
			c-0.3,27.9,4.6,41.6,15.2,69.5s26.5,42.3,48.1,43c21.5,0.7,36.8-14.8,36.8-14.8l10.8-9.3c2.9,1.7,6.3,3.4,10,4.9
			c-8.3,9.6-15.4,17.9-19,22.3c0,0-9.9,9.8-7,30.8c3,21,25.5,37.4,47.7,47.2c22.2,9.8,43.1,16.1,71.3,16.4
			c28.2,0.3,42.1-4.6,70.3-15.1c28.2-10.5,42.8-26.2,43.4-47.6c0.7-21.3-14.9-36.4-14.9-36.4l-12.5-14.5c4.6-1.7,9.2-3.5,13.3-5.5
			c9.1,7.5,17,14.1,21.3,17.6c0,0,9.9,9.8,31.2,6.9c21.2-3,37.8-25.3,47.7-47.2c9.9-22,16.2-42.6,16.6-70.5
			C538.2,295.8,533.3,282,522.6,254.2z M409.9,242.3c0.2-0.2,0.4-0.3,0.7-0.5c1.4-0.6,3.4,0.3,3.3,2.2c0,0,0,0.4,0,1.2
			c0,1.3-0.1,3.6-0.1,6.3l3.7-6.5c1.4-2.5,5.2-0.7,4.3,1.9c0,0-1.1,3.1-2.5,7.1l5.6-5.1c2.1-1.9,5.2,0.9,3.5,3.2c0,0-2,2.6-4.5,6
			l6.8-3.1c2.6-1.2,4.6,2.5,2.3,4.1c0,0-2.7,1.9-6.2,4.3l7.5-0.9c2.8-0.3,3.7,3.8,1,4.6c0,0-3.1,1-7.2,2.2l7.4,1.5
			c2.8,0.6,2.3,4.7-0.5,4.7c0,0-3.3,0-7.5-0.1l6.6,3.7c2.5,1.4,0.8,5.2-1.9,4.3c0,0-3.1-1-7.1-2.4l5.1,5.5c1.1,1.2,0.7,2.6-0.2,3.4
			c-4.1-3.8-5.7-5.2-6.4-5.8l0,0c-1.4-1.8-3.9-2.2-5.9-1.1c-1,0.6-1.8,1.5-2.2,2.6c-1.7-0.8-3.6-0.7-5.3,0.2c-1.4,0.7-2.4,2-2.8,3.5
			l-0.2,0.5c0,0.1-0.4,2.1,0.3,8.9c-1.3,1.2-4,0.5-4-1.8c0,0,0-3.3,0-7.5l-3.6,6.6c-1.4,2.5-5.2,0.8-4.3-1.9c0,0,1-3.1,2.3-7.1
			l-5.5,5.2c-2.1,1.9-5.2-0.8-3.5-3.1c0,0,2.3-3.1,5.1-7l-8,3.5c-2.6,1.1-4.6-2.5-2.3-4.1c0,0,2.7-1.8,6.2-4.2l-7.5,0.7
			c-1.6,0.2-2.6-1.2-2.6-2.5l0,0c0,0,0,0,0,0c0-0.3,0.1-0.7,0.2-1c0,0,0,0,0,0c0-0.1,0.1-0.1,0.1-0.2c0,0,0.1-0.1,0.1-0.1
			c0-0.1,0.1-0.1,0.1-0.2c0-0.1,0.1-0.1,0.2-0.2c0,0,0.1-0.1,0.1-0.1c0.1-0.1,0.1-0.1,0.2-0.2c0,0,0.1-0.1,0.1-0.1
			c0.1-0.1,0.3-0.1,0.4-0.2c0,0,0,0,0,0c0,0,0.2,0,0.4-0.1c0.2-0.1,0.5-0.1,0.9-0.3l0,0c1.3-0.4,3.4-1,5.9-1.7l-3.1-0.7l0,0
			l-0.4-0.1l-3.8-0.8c-2.8-0.6-2.3-4.7,0.6-4.7c0,0,2.5,0.1,5.9,0.2l0,0c0.5,0,1,0,1.6,0l-6.5-3.8c-2.4-1.4-0.7-5.2,1.9-4.3
			c4.6,3.6,6.2,4.2,6.3,4.2l0.5,0.1l0,0c0.5,0.1,1.1,0.2,1.6,0.2c1,0,2-0.2,2.9-0.7c0.4-0.2,0.8-0.5,1.1-0.8c0.5-0.5,0.9-1,1.2-1.6
			c0.1-0.3,0.3-0.6,0.4-0.8c0.1-0.4,0.2-0.7,0.3-1.1c0.3,0.1,0.5,0.1,0.8,0.1c0.2,0,0.5,0,0.7,0c0,0,0.1,0,0.1,0
			c0.5-0.1,1.1-0.2,1.6-0.5c0,0,0.1,0,0.1-0.1c0.6-0.3,1.1-0.8,1.5-1.4c0.3-0.4,0.5-0.9,0.7-1.4c0-0.1,0-0.1,0.1-0.2
			c0-0.1,0.1-0.3,0.1-0.4c0-0.2,0-0.3,0.1-0.5c0-0.1,0-0.2,0-0.3c0-0.2,0-0.3,0-0.5c0-0.1,0-0.1,0-0.2c0-0.2-0.1-0.5-0.2-0.7
			c0,0,0,0,0,0c0,0,0-0.1,0-0.1c0,0,0,0,0,0c0-0.1,0-0.1,0-0.2c0-0.1,0-0.1,0-0.2c0,0,0,0,0,0c0-0.1,0-0.2,0-0.3
			c0-0.1,0-0.2-0.1-0.3c0,0,0,0,0,0c0-0.2-0.1-0.3-0.1-0.5c0,0,0,0,0,0c-0.1-0.6-0.2-1.2-0.4-2l0,0c-0.2-1.3-0.5-3-0.9-4.8
			c0.9,0,1.8,0.5,2.2,1.7c0,0,0.2,0.6,0.5,1.6c0,0.1,0,0.1,0.1,0.2c0.1,0.2,0.1,0.4,0.2,0.6c0.2,0.7,0.4,1.4,0.7,2.3
			c0.2,0.8,0.5,1.6,0.7,2.5l1.5-7.4C409.4,243,409.6,242.6,409.9,242.3z M403.2,315.4l0.3,8.8c0,1.1-1.6,1.4-1.9,0.3l-2.4-7.5
			c-2.3-0.8-6.8-2.4-6.9-2.4c-1.1-0.3-0.7-2,0.4-1.9l8,0.3l5.3-7.6c0.7-1,1.7-1.1,2.5-0.8c0.2,1.2,0.4,2.5,0.6,3.8L403.2,315.4
			C403.2,315.3,403.2,315.4,403.2,315.4z M338.3,410.2c-1.1,1.1-1.7,2.6-1.7,4.2c0,1.9,0.9,3.6,2.4,4.7c-0.8,0.9-1.2,2-1.2,3.1
			c0,2.3,1.6,4.2,3.7,4.6c0.4,0.1,3.7,1.3,8.2,2.8c-0.5,0.8-1.3,1.3-2.5,1.1c0,0-3.2-0.7-7.4-1.6l5.7,4.9c2.1,1.9-0.3,5.2-2.7,3.8
			c0,0-2.8-1.6-6.5-3.8l3.9,6.4c1.5,2.4-1.9,4.9-3.8,2.8c0,0-2.2-2.4-5-5.6l1.8,7.3c0.6,2.8-3.3,4.1-4.5,1.5c0,0-1.3-3-3.1-6.9
			l-0.6,7.5c-0.2,2.8-4.4,2.9-4.7,0.1c0,0-0.4-3.2-0.8-7.5l-2.9,7c-1.1,2.6-5.1,1.4-4.5-1.4c0,0,0.7-3.2,1.5-7.4l-4.9,5.7
			c-1.9,2.2-5.3-0.2-3.9-2.7c0,0,1.6-2.8,3.7-6.5l-6.4,4c-2.4,1.5-4.9-1.8-2.8-3.8c0,0,2.4-2.2,5.5-5.1l-7.3,1.8
			c-1.5,0.4-2.6-0.7-2.9-1.9c5-1.6,7.2-2.4,8.1-2.8l0,0.1c2.2-0.4,3.8-2.4,3.8-4.6c0-1.2-0.4-2.3-1.2-3.1c1.5-1.1,2.4-2.8,2.4-4.7
			c0-1.5-0.6-3-1.7-4.2l0-0.1l-0.3-0.3c-0.1-0.1-1.6-1.4-7.9-4c-0.4-1.8,1.5-3.7,3.5-2.6c0,0,2.9,1.6,6.6,3.7l-4-6.4
			c-1.5-2.4,1.8-4.9,3.7-2.9c0,0,2.2,2.4,5.1,5.5l-1.9-7.3c-0.7-2.8,3.2-4.1,4.4-1.6c0,0,1.6,3.5,3.7,7.9l0.8-8.7
			c0.3-2.8,4.4-2.8,4.7,0c0,0,0.3,3.2,0.7,7.5l3-6.9c1.1-2.6,5.1-1.3,4.5,1.4c0,0-0.7,3.2-1.6,7.3l5-5.7c1.9-2.1,5.2,0.3,3.8,2.8
			c0,0-1.7,2.8-3.8,6.5l6.5-3.9c2.4-1.4,4.9,1.9,2.8,3.8c-5.3,2.3-6.7,3.4-6.8,3.5L338.3,410.2L338.3,410.2z M239.3,308.4
			c0.2-1.4,0.5-2.6,0.6-3.8c0.8-0.3,1.7-0.2,2.4,0.6c0,0,0.1,0.1,0.1,0.2l5.3,7.6c0.9,0,8-0.3,8-0.3c1.1-0.1,1.4,1.6,0.4,1.9
			l-6.9,2.4c-0.7,2.1-2.4,7.5-2.4,7.5c-0.3,1.1-2,0.8-1.9-0.3l0.3-8.8c0,0,0,0,0-0.1L239.3,308.4z M293.3,258.8
			c-0.6-2.1,2.6-3,3.2-0.9c2,8.4-1.8,16.8-6.7,23.5c-1.5,2-3.2,4-5.4,5.3c-0.1,1.3-1.3,2.5-3.1,1.9c0,0-4.5-1.9-4.5-1.9
			c-0.8-0.3-0.6-1.5,0.2-1.6l4.9-0.8c0.6,0,1,0,1.4,0.2c1.8-1.1,3.2-2.9,4.4-4.6C292,273.9,295.2,266.1,293.3,258.8z M268.9,261.4
			c0.2,0.1,0.4,0.2,0.6,0.3c0,0,0,0,0,0c1.5,0.8,2.7,1.8,3.8,3c1.7,1.9,2.8,4.2,3.2,6.6c0,0.1,0,0.1,0,0.2c0.1,0.7,0.2,1.4,0.1,2.1
			c0,1.3-0.3,2.6-0.7,3.9l-6.5-0.8C270.8,271.3,270.5,265.9,268.9,261.4z M289.1,247.8l-5.1,6c0.4,1.9,1.6,7.1,1.6,7.1
			c0.3,1.1-1.3,1.7-1.8,0.7l-4-6.9l-9.2-0.5c-1.2-0.1-1.8-0.8-2-1.7c0.9-0.8,1.9-1.6,2.9-2.6l9,1.3c0,0,0,0,0,0l7.3-4.9
			C288.7,245.7,289.9,246.9,289.1,247.8z M269,278.4l6.8,0.8l0.2,0c0.2,3.3-0.5,6.8-2.2,10c-1.8,3.2-4.4,5.7-7.3,7.3l-0.1-0.1
			l-4.3-5.3c1.5-1.8,3-3.8,4.2-5.9C267.4,282.9,268.3,280.6,269,278.4z M265.1,297.4C265.1,297.4,265.1,297.4,265.1,297.4
			c-0.1,0.2-0.3,0.3-0.4,0.5c0,0.1-0.1,0.1-0.1,0.2c-0.1,0.1-0.2,0.2-0.3,0.3c-0.1,0.1-0.1,0.1-0.2,0.2c-0.1,0.1-0.2,0.2-0.3,0.3
			c0,0-0.1,0.1-0.1,0.1c-0.2,0.1-0.3,0.3-0.5,0.4c0,0-0.1,0.1-0.1,0.1c-0.1,0.1-0.3,0.2-0.4,0.3c-0.1,0-0.1,0.1-0.2,0.1
			c-0.1,0.1-0.2,0.2-0.4,0.2c-0.1,0-0.1,0.1-0.2,0.1c-0.1,0.1-0.3,0.2-0.4,0.2c0,0-0.1,0.1-0.1,0.1c-0.2,0.1-0.4,0.2-0.6,0.3
			c-0.1,0-0.1,0.1-0.2,0.1c-0.1,0.1-0.3,0.1-0.4,0.2c-0.1,0-0.1,0.1-0.2,0.1c-0.1,0.1-0.3,0.1-0.4,0.2c-0.1,0-0.1,0-0.2,0.1
			c-0.2,0.1-0.4,0.1-0.5,0.2c0,0-0.1,0-0.1,0c-0.2,0.1-0.4,0.1-0.6,0.2c-0.1,0-0.1,0-0.2,0c-0.1,0-0.3,0.1-0.4,0.1
			c-0.1,0-0.2,0-0.2,0c-0.2,0-0.3,0-0.5,0.1c-0.1,0-0.1,0-0.2,0c-0.2,0-0.4,0-0.7,0.1c0,0-0.1,0-0.1,0c-0.2,0-0.4,0-0.6,0
			c-0.1,0-0.1,0-0.2,0c-0.2,0-0.4,0-0.6,0c-0.1,0-0.1,0-0.2,0c-0.2,0-0.5,0-0.7-0.1c-0.1,0-0.1,0-0.2,0c-0.2,0-0.4-0.1-0.6-0.1
			c-0.1,0-0.1,0-0.2,0c-0.3,0-0.5-0.1-0.7-0.2c0,0-0.1,0-0.1,0c-0.2-0.1-0.4-0.1-0.6-0.2c-0.1,0-0.1,0-0.2-0.1
			c-0.2-0.1-0.5-0.2-0.7-0.3c0,0,0,0-0.1,0c-0.2-0.1-0.4-0.2-0.7-0.3c-0.1,0-0.1-0.1-0.2-0.1c-0.2-0.1-0.5-0.2-0.7-0.4
			c-0.2-0.1-0.4-0.2-0.6-0.3c4.7-1.1,9.3-3.8,13.2-7.8L265.1,297.4z M274,366.7c-2.7,3.1-11.7,13.4-22.2,25.6
			c-2.2-0.4-4.4-0.7-6.4-1L274,366.7z M263.3,323.4c-1.5,0.7-4.9,3.5-6.1,0.8c-0.3-0.9,0.3-1.9,1.2-2.2c7.1-2.4,11.9-9.1,14.6-15.9
			c0.8-2,1.5-4.1,1.5-6.2c-0.4-0.2-0.7-0.6-0.9-1.1l-1.9-4.5c-0.4-0.8,0.6-1.5,1.3-1l4.1,2.8c1.5,1.2,1.1,2.8,0.1,3.6
			c0.1,2.5-0.8,5-1.6,7.4C273.1,313.5,269.3,319.7,263.3,323.4z M278.4,388.2l7.7,1.5c1.5-1.3,5.5-4.9,5.5-4.9
			c0.8-0.8,2.1,0.3,1.5,1.2l-4.1,6.8l4.1,8.3c0.5,1.1,0.1,2-0.5,2.6c-1.1-0.4-2.3-0.8-3.7-1.3l-3.2-8.5c0,0,0,0-0.1,0l-7.8-4
			C276.8,389.5,277.4,387.9,278.4,388.2z M286.2,379.1c-1.5,1.7-4-0.6-2.4-2.3c6.4-5.8,15.6-6.6,23.8-5.5c2.5,0.4,5,0.8,7.2,2.1
			c1.2-0.5,2.8-0.1,3.1,1.8c0,0,0.5,4.9,0.5,4.9c0.1,0.8-1,1.3-1.5,0.6l-3-3.9c-0.3-0.5-0.5-0.9-0.5-1.3c-1.8-1-4.1-1.4-6.1-1.6
			C300,373.1,291.7,374,286.2,379.1z M332.1,384.7l-2.5,6.3c-2.3-0.5-4.8-0.8-7.3-0.8c-2.5,0-4.9,0.3-7.2,0.8l-2.5-6.3l-0.1-0.2
			c2.8-1.8,6.2-2.9,9.9-2.9c3.6,0,7,1.1,9.8,2.9L332.1,384.7z M333.6,385.3c6.1,1,10.8,6.6,10.8,13.3c0,0.3,0,0.5,0,0.7
			c-3.2-3.6-7.8-6.4-13.2-7.9L333.6,385.3z M313.5,391.4c-5.4,1.5-10,4.2-13.2,7.8c0-0.2,0-0.4,0-0.7c0-0.7,0.1-1.5,0.2-2.2
			c0-0.2,0.1-0.4,0.1-0.6c0.1-0.5,0.2-0.9,0.4-1.4c1.5-4.7,5.4-8.3,10.2-9.1L313.5,391.4z M337.3,374c-2.1,0.3-4.3,0.6-6.1,1.6
			c0,0.4-0.2,0.9-0.5,1.3l-3,3.9c-0.5,0.7-1.6,0.2-1.5-0.6l0.5-4.9c0.3-2,1.9-2.3,3.1-1.8c2.2-1.3,4.7-1.7,7.2-2.1
			c6.8-0.9,14-0.6,20.2,2.9c1.4,1,5.4,2.6,3.7,4.9c-0.7,0.7-1.8,0.7-2.5,0C352.8,374,344.6,373.1,337.3,374z M351.4,386
			c-0.6-0.9,0.7-2,1.5-1.2l5.5,4.9c2.2-0.4,7.7-1.5,7.7-1.5c1.1-0.2,1.6,1.4,0.6,1.8l-7.8,4c0,0,0,0-0.1,0l-3.2,8.5
			c-1.3,0.5-2.5,0.9-3.7,1.3c-0.6-0.5-1-1.4-0.6-2.4c0-0.1,0.1-0.1,0.1-0.2l4.1-8.3C355,392.1,351.4,386,351.4,386z M356.6,363.3
			l12.4,10.2c0,0,10,8.4,22.8,19c-2.6,0.5-5.4,1.1-8.3,1.8L356.6,363.3z M360.7,279.8c1.2,1.7,2.6,3.5,4.4,4.6
			c0.4-0.2,0.8-0.3,1.4-0.2c0,0,4.9,0.8,4.9,0.8c0.8,0.1,1,1.3,0.2,1.6l-4.5,1.9c-1.9,0.6-3-0.6-3.1-1.9c-2.2-1.3-3.8-3.3-5.4-5.3
			c-4.1-5.5-7.3-12-7.2-19c0.2-1.7-0.3-6,2.5-5.6c1,0.2,1.5,1.3,1.2,2.2C353.2,266.2,356.4,273.9,360.7,279.8z M375.2,306.2
			c2.7,6.8,7.6,13.6,14.8,15.9c2.1,0.6,1.2,3.8-0.9,3.2c-8.2-2.8-13.3-10.5-16.3-18.2c-0.8-2.4-1.7-4.8-1.6-7.4
			c-1-0.8-1.4-2.4,0.1-3.6l4.1-2.8c0.7-0.5,1.6,0.3,1.3,1l-1.9,4.5c-0.3,0.5-0.6,0.9-0.9,1.1C373.7,302.1,374.5,304.2,375.2,306.2z
			 M391.1,302c-0.2,0-0.3-0.1-0.4-0.1c-0.1,0-0.1,0-0.2,0c-0.2,0-0.4-0.1-0.6-0.2c0,0-0.1,0-0.1,0c-0.2-0.1-0.4-0.1-0.5-0.2
			c-0.1,0-0.1,0-0.2-0.1c-0.1,0-0.3-0.1-0.4-0.2c-0.1,0-0.1-0.1-0.2-0.1c-0.1-0.1-0.3-0.1-0.4-0.2c-0.1,0-0.1,0-0.2-0.1
			c-0.2-0.1-0.4-0.2-0.6-0.3c0,0-0.1-0.1-0.1-0.1c-0.1-0.1-0.3-0.2-0.4-0.2c-0.1,0-0.1-0.1-0.2-0.1c-0.1-0.1-0.2-0.2-0.4-0.2
			c-0.1,0-0.1-0.1-0.2-0.1c-0.1-0.1-0.3-0.2-0.4-0.3c0,0-0.1-0.1-0.1-0.1c-0.2-0.1-0.3-0.3-0.5-0.4c0,0-0.1-0.1-0.1-0.1
			c-0.1-0.1-0.2-0.2-0.3-0.3c-0.1-0.1-0.1-0.1-0.2-0.2c-0.1-0.1-0.2-0.2-0.3-0.3c0-0.1-0.1-0.1-0.1-0.2c-0.1-0.2-0.3-0.3-0.4-0.5
			c0,0,0,0,0,0l4.2-5.1c3.9,4,8.5,6.7,13.2,7.8c-0.2,0.1-0.4,0.2-0.6,0.3c-0.2,0.1-0.5,0.3-0.7,0.4c-0.1,0-0.1,0.1-0.2,0.1
			c-0.2,0.1-0.4,0.2-0.7,0.3c0,0,0,0-0.1,0c-0.2,0.1-0.5,0.2-0.7,0.3c-0.1,0-0.1,0-0.2,0.1c-0.2,0.1-0.4,0.1-0.6,0.2
			c0,0-0.1,0-0.1,0c-0.2,0.1-0.5,0.1-0.8,0.2c-0.1,0-0.1,0-0.2,0c-0.2,0-0.4,0.1-0.6,0.1c-0.1,0-0.1,0-0.2,0c-0.2,0-0.5,0.1-0.7,0.1
			c-0.1,0-0.1,0-0.2,0c-0.2,0-0.4,0-0.6,0c-0.1,0-0.1,0-0.2,0c-0.2,0-0.4,0-0.6,0c0,0-0.1,0-0.1,0c-0.2,0-0.4,0-0.7-0.1
			c-0.1,0-0.1,0-0.2,0c-0.2,0-0.3,0-0.5-0.1C391.3,302,391.2,302,391.1,302z M382,296.3l-0.1,0.1c-3-1.6-5.6-4-7.3-7.3
			c-1.8-3.2-2.5-6.7-2.2-10l0.2,0l3.5-0.4l0,0l0.2,0h0l3-0.4c0.7,2.3,1.6,4.5,2.8,6.7c1.2,2.2,2.6,4.2,4.2,5.9L382,296.3z
			 M378.7,275.8c0.1,0.3,0.1,0.5,0.2,0.8l0,0c0,0.1,0,0.2,0,0.2l-1,0.1l-0.2,0l0,0l-5.3,0.7c-0.5-1.3-0.7-2.6-0.7-3.9
			c-0.1-3.3,1.2-6.6,3.5-9.1c1-1.1,2.2-2,3.6-2.8c0,0,0,0,0,0c0.2-0.1,0.4-0.2,0.7-0.3C377.9,265.6,377.6,270.7,378.7,275.8
			L378.7,275.8z M377.9,254.3c-0.1,0-0.1,0-0.2,0l-9.2,0.5c-0.4,0.8-4,6.9-4,6.9c-0.5,1-2.1,0.3-1.8-0.7l1.6-7.1
			c-1.4-1.7-5.1-6-5.1-6c-0.7-0.8,0.4-2.1,1.3-1.5l7.3,4.9c0,0,0,0,0,0l9-1.3c1,0.9,2,1.8,2.9,2.6
			C379.6,253.4,379,254.1,377.9,254.3z M401,227.6c0.1-0.3,0.3-0.6,0.6-0.8l5.6-3.3l2.8-1.6c0.6-0.3,1.3-0.7,1.9-1
			c0-0.2,0.1-0.4,0.2-0.6l8.9-9.1c0,0,0,0,0,0c-0.7-1.6-2.5-6.3-2.5-6.3c-0.4-1,0.9-1.8,1.6-1.1l5.1,5.3c0.3,0.4,0.5,0.7,0.6,1.1
			c1.7,0,6.3,0,6.3,0c1.1,0,1.4,1.6,0.3,1.9l-6.3,1.9c-2.9,3.7-6.1,7.4-9.5,10.5c-0.2,0.2-0.5,0.2-0.7,0.2c-3,3.6-5.5,7.4-8.6,11
			c0.2,0.4,0.4,0.9,0.5,1.3c0.5,1.1,1,2.3,1.4,3.6c-0.7,0.1-1.4,0.3-2.1,0.5l-0.5-0.9c-0.7-1.5-2-3.1-2.1-4.8
			c-0.3-0.3-0.6-0.6-0.9-0.9l-1.9-0.8c-0.3-1.5-0.6-3-0.9-4.5C400.9,228.7,401,228.1,401,227.6z M338.7,181.8
			c2.2-1.2,4.8-1.5,7.3-0.8l0.4,0.2c0.2,0.1,0.4,0.1,0.6,0.2c7.6,2.9,18.2,11.7,26.6,19.6c-7.1,4.4-0.4,19.1,2.3,24.8
			c4.2,8.2,9.6,15.6,15.6,22.5c0.3,0.3,0.8-0.1,0.5-0.4c-2.7-3.7-5.3-7.4-7.8-11.2c-4.1-6.1-18.1-29.2-10-35.2
			c5,4.7,9.1,8.9,11.3,11.1l0.5,0.5l0.6-0.3c0.1,0,0.1-0.1,0.2-0.1c1.5-0.9,3.3-1,5.1-0.5c1.7,0.5,3.2,1.7,4.1,3.3
			c0.1,0.1,0.1,0.3,0.2,0.4l0.2,0.4c0.1,0.1,0.1,0.2,0.1,0.3c1.8,5.2,6.1,29,6.9,33.7c0,0.2,0.1,0.4,0.1,0.6c0,0,0,0,0,0
			c0,0,0,0.1,0,0.1c0,0,0,0.1,0,0.1c0,0,0,0,0,0c0.4,1.1,0.1,2.2-0.6,3c-0.2,0.3-0.5,0.5-0.8,0.7c-0.8,0.4-1.7,0.5-2.6,0.2
			c-0.1,0-0.2-0.1-0.4-0.2l-0.4-0.2l-0.9-0.5l0,0.2l0,0l0,0.3l0,1c0,0.4,0,0.8-0.1,1.2c-0.1,0.4-0.2,0.8-0.4,1.1
			c-0.2,0.3-0.4,0.7-0.7,1c-0.1,0.1-0.3,0.3-0.5,0.4c-0.2,0.1-0.3,0.2-0.5,0.3c0,0,0,0,0,0c-0.2,0.1-0.4,0.2-0.6,0.3
			c0,0-0.1,0-0.1,0c-0.2,0.1-0.4,0.1-0.7,0.2c0,0,0,0,0,0c-0.7,0.1-1.4,0-2.1-0.2l-0.3-0.1c-1.4-0.7-8.5-4.7-29.5-26
			c-18.9-19.2-25.6-33.9-27.7-39.5c-0.2-0.5-0.4-1.1-0.6-1.8l0-0.1C333,188.2,334.9,183.9,338.7,181.8z M319.9,311.2
			c0.4-9,1-21.5,1-21.5c0.1-2.4,2.6-2.4,2.7,0l1.2,22.7l-2.6-6.6l-1.8,6.2l2.8,5c3-5.3,9.5-17.1,9.5-17.1c0.9-1.6,3.3-0.4,2.6,1.2
			l-4.5,11.7c6.7-5.9,15.4-13.8,15.4-13.8c1.8-1.6,3.5,0.2,1.9,1.9l-16.3,17.7c6.5-1.2,15.8-2.9,15.8-2.9c1.7-0.3,2.4,2.3,0.7,2.8
			l-15.5,5.2c8.5,2.2,24.1,6.1,24.1,6.1c2.3,0.6,1.8,3-0.5,2.7l-21.3-3.2c4.6,3.9,9.6,8.2,9.6,8.2c1.4,1.1-0.2,3.3-1.7,2.3
			l-13.5-8.5c3.9,7.8,11.3,22.7,11.3,22.7c1.1,2.1-1.1,3.4-2.4,1.3l-12.8-20.3c-0.7,6.6-1.5,15.3-1.5,15.3c-0.2,1.8-2.8,1.7-2.9-0.1
			l-0.7-16.2c-4.2,7.7-12,21.8-12,21.8c-1.1,2.1-3.4,1-2.4-1.2l8.7-20.4c-4.6,3.7-9.5,7.5-9.5,7.5c-1.4,1.1-3.2-0.9-2-2.1l10.3-10.9
			c-8.6,1.7-24.4,4.9-24.4,4.9c-2.4,0.5-3-1.9-0.7-2.6l22.5-6.9c-6.2-1.3-13.4-2.9-13.4-2.9c-1.7-0.4-1.4-3,0.4-2.9l15.1,1.1
			c-6.7-5.8-18.5-15.9-18.5-15.9c-1.8-1.6-0.3-3.5,1.7-2.1l19.9,14l-7-2.4l4.2,6.4l4.8,0.3c-2.1-5.3-7.4-18.8-7.4-18.8
			c-0.7-1.6,1.8-2.8,2.6-1.3L319.9,311.2z M252.1,216.6c0-0.1,0.1-0.2,0.2-0.4l0.1-0.3c0.1-0.1,0.1-0.3,0.2-0.4
			c0.9-1.6,2.3-2.8,4.1-3.3c1.7-0.5,3.5-0.4,5.1,0.5l0.7,0.4l0.5-0.5c2.2-2.3,6.3-6.5,11.3-11.2c3.3,2.2,2.5,7.5,1.7,11
			c-3.5,13.1-11.7,24.5-19.5,35.4c-0.3,0.3,0.3,0.7,0.5,0.4c3-3.4,5.8-7,8.5-10.8c4.8-6.2,18.9-30.5,9.4-36.5
			c8.4-7.8,19-16.7,26.7-19.6c0.2-0.1,0.4-0.1,0.5-0.2l0.4-0.1c2.5-0.7,5.1-0.4,7.3,0.8c3.7,2.1,5.7,6.4,4.7,10.6
			c-0.1,0.6-0.3,1.2-0.6,1.8c-2,5.5-8.8,20.2-27.7,39.4c-20.4,20.7-27.7,25.1-29.4,26l0,0l-0.4,0.2c-0.6,0.2-1.3,0.3-1.9,0.2v0
			c0,0,0,0,0,0c-0.3,0-0.6-0.1-0.8-0.2c0,0,0,0,0,0c-0.3-0.1-0.5-0.2-0.8-0.3c-0.2-0.1-0.3-0.2-0.5-0.3c-0.1-0.1-0.2-0.1-0.2-0.2
			c-0.1-0.1-0.1-0.1-0.2-0.2c-0.1-0.1-0.2-0.2-0.3-0.3c0,0-0.1-0.1-0.1-0.1c-0.1-0.1-0.2-0.3-0.3-0.4c0,0,0,0,0-0.1
			c-0.1-0.2-0.2-0.3-0.2-0.5c0,0,0,0,0,0c-0.2-0.5-0.3-1.1-0.3-1.7c0,0,0,0,0,0l0,0c0,0,0-0.1,0-0.1l0.1-1.4l-1.3,0.7
			c-0.1,0.1-0.2,0.1-0.4,0.2c-0.2,0.1-0.5,0.1-0.7,0.2c0,0-0.1,0-0.1,0c-0.6,0.1-1.3,0-1.8-0.4c-1-0.5-1.6-1.5-1.6-2.6
			c0-0.4,0-0.8,0.2-1.1c0,0,0-0.1,0-0.2C245.5,248.3,250.2,222,252.1,216.6z M232.4,224.8c-0.2,0-0.5,0-0.7-0.2
			c-3.4-3.1-6.6-6.9-9.5-10.5c-1.3-0.4-6.3-1.9-6.3-1.9c-1.1-0.3-0.8-2,0.3-1.9l6.3,0c0.1-0.3,0.3-0.7,0.6-1.1c0,0,5.1-5.3,5.1-5.3
			c0.7-0.8,2.1,0.1,1.6,1.1l-2.5,6.3c0,0,0,0,0,0l8.9,9.1c0.2,0.2,0.2,0.4,0.3,0.6c0.7,0.3,1.3,0.7,1.9,1l2.8,1.6l5.6,3.3
			c0.3,0.2,0.5,0.5,0.6,0.8c0.1,0.5,0.1,1.1,0.1,1.6c-0.3,1.4-0.6,2.9-0.9,4.5l-1.9,0.9c-0.3,0.3-0.6,0.6-0.9,0.9
			c-0.1,1.7-1.5,3.3-2.1,4.8c0,0-0.2,0.4-0.5,0.9c-0.7-0.2-1.4-0.4-2.1-0.5c0.4-1.2,0.9-2.4,1.4-3.6c0.2-0.4,0.3-0.9,0.5-1.3
			C237.9,232.2,235.4,228.4,232.4,224.8z M212.8,271c0,0,3.2-0.6,7.4-1.5l-7.2-2.2c-2.7-0.9-1.8-4.9,1-4.6c0,0,3.2,0.4,7.5,0.9
			l-6.2-4.3c-2.3-1.6-0.2-5.3,2.3-4.1c0,0,3,1.3,6.8,3.1l-4.5-6c-1.7-2.3,1.4-5.1,3.5-3.2c0,0,2.4,2.2,5.6,5.1l-2.5-7.1
			c-0.9-2.7,2.9-4.4,4.3-1.9c0,0,1.6,2.8,3.7,6.5l-0.1-5.3l0,0l0-2.2c0-0.4,0.1-0.7,0.2-1c0.1-0.1,0.1-0.3,0.2-0.4
			c1-1.5,3.7-1.4,4.3,0.6c0,0.1,0,0.1,0.1,0.2c0,0,0,0.2,0.1,0.5c0.2,1,0.7,3.2,1.3,6.1c0.1,0.3,0.1,0.5,0.2,0.8l2.2-7.2
			c0.3-1.1,1.2-1.6,2.2-1.7c-0.5,2.7-0.9,4.6-1.1,5.9c0,0,0,0,0,0c-0.1,0.3-0.1,0.6-0.1,0.8c0,0,0,0,0,0c0,0.1,0,0.2-0.1,0.3
			c0,0,0,0.1,0,0.1c0,0.1,0,0.1,0,0.2c0,0.1,0,0.2,0,0.2c0,0,0,0,0,0.1c0,0.3-0.1,0.5-0.1,0.6l0,0l0,0c-0.1,0.2-0.1,0.5-0.2,0.7
			c0,0.1,0,0.1,0,0.2c0,0.2,0,0.4,0,0.7c0,0.1,0,0.1,0,0.2c0,0.2,0,0.3,0.1,0.5c0,0.1,0,0.3,0.1,0.4c0,0.1,0.1,0.2,0.1,0.4
			c0,0.1,0.1,0.2,0.1,0.3c0.4,0.9,1.1,1.7,2,2.3c0.2,0.1,0.4,0.2,0.6,0.3c0,0,0,0,0,0c0.2,0.1,0.4,0.1,0.5,0.2c0.1,0,0.1,0,0.2,0
			c0.2,0,0.3,0.1,0.5,0.1c0.1,0,0.3,0,0.4,0c0.1,0,0.2,0,0.4,0c0.3,0,0.5,0,0.8-0.1c0.1,0.9,0.4,1.7,0.9,2.4c0.5,0.8,1.2,1.5,2.1,2
			c0.9,0.5,1.9,0.7,2.9,0.7c0.2,0,0.4,0,0.6,0c0.1,0,0.2,0,0.3,0l0,0c0.2,0,0.4-0.1,0.7-0.1l0.1,0l0.4-0.1c0.1,0,1.8-0.6,6.3-4.2
			c2.7-0.9,4.3,2.9,1.9,4.3c0,0-2.8,1.6-6.5,3.8l0.2,0l7.4-0.2c2.8-0.1,3.3,4.1,0.6,4.7c0,0-3.2,0.7-7.3,1.6l6.5,1.9l0,0l0,0
			l0.7,0.2c2.7,0.8,1.9,4.9-0.9,4.6c0,0-3.2-0.3-7.5-0.7l6.2,4.2c2.3,1.6,0.3,5.2-2.3,4.1c0,0-3.6-1.5-8-3.5l5.1,7
			c1.7,2.3-1.5,5-3.5,3.1c0,0-2.4-2.2-5.5-5.2l2.3,7.1c0.9,2.7-2.9,4.4-4.3,1.9c0,0-1.6-2.9-3.6-6.6l0,7.5c0,2.3-2.6,3-4,1.8
			c0.8-6.8,0.4-8.7,0.3-8.9l-0.2-0.4l0,0c-0.5-1.5-1.5-2.8-2.8-3.5c-1.7-0.9-3.6-1-5.3-0.2c-0.4-1.1-1.1-2-2.2-2.6
			c-2-1.1-4.5-0.6-5.8,1.1c-0.3,0.3-2.9,2.7-6.4,5.9c-0.9-0.8-1.3-2.3-0.3-3.4c0,0,2.2-2.4,5.1-5.5l-7.1,2.4
			c-2.7,0.9-4.4-2.9-1.9-4.3c0,0,2.8-1.6,6.6-3.7l-7.5,0.1C210.4,275.7,210,271.6,212.8,271z M195.4,294.4l-12.4-2.6c0,0,0,0-0.1,0
			c-1,1.4-4,5.5-4,5.5c-0.6,0.9-2.1,0.2-1.8-0.8l1.8-7.2c0.1-0.4,0.3-0.8,0.6-1.1c-0.9-1.4-3.4-5.3-3.4-5.3c-0.6-0.9,0.7-2,1.5-1.3
			l5,4.3c4.6,0.5,9.5,1.2,14,2.4c0.3,0.1,0.5,0.2,0.5,0.5c4.7,0.6,9.2,0.7,13.9,1.4c0.3-0.4,0.5-0.8,0.8-1.1c0.7-1,1.5-2.1,2.3-3.1
			c0.5,0.5,1,1,1.5,1.5l-0.5,1c-0.9,1.4-1.5,3.3-2.9,4.4c-0.1,0.4-0.2,0.8-0.3,1.2l0.3,2c-0.5,0.5-1,0.9-1.5,1.4v0c0,0,0,0,0,0
			c-0.6,0.6-1.2,1.2-1.8,1.8c-0.5,0.3-0.9,0.5-1.5,0.8c-0.3,0.1-0.7,0.1-1-0.1l-5.7-3l-2.9-1.5c-0.5-0.3-1.3-0.7-1.9-1.1
			C195.8,294.4,195.6,294.4,195.4,294.4z M202,377.1c-2.2-1.2-3.9-3.3-4.6-5.7l0-0.1l-0.1-0.4c0-0.2-0.1-0.3-0.1-0.5
			c-1.6-8,0.2-21.7,2.3-33c7.5,3.6,16.4-9.8,19.8-15.2c4.6-7.9,8-16.5,10.7-25.2c0.1-0.4-0.5-0.6-0.6-0.2c-1.7,4.2-3.4,8.4-5.3,12.5
			c-3,6.7-15.1,30.9-24.4,27.2c1.3-6.7,2.6-12.4,3.4-15.5l0.2-0.6l-0.6-0.3c-0.1,0-0.1-0.1-0.2-0.1c-3.2-1.8-4.3-5.9-2.5-9.2
			c0.1-0.1,0.2-0.3,0.3-0.4l0.2-0.4c0.1-0.1,0.1-0.2,0.1-0.3c3.8-4.7,25.1-24.1,25.4-24.4c0.9-1.1,2.6-1.5,3.9-0.7
			c0.9,0.5,1.5,1.4,1.6,2.5l0.1,1.4l1.2-0.8c1.4-1,3.1-1.1,4.6-0.3c1.1,0.6,1.9,1.6,2.1,2.9l0.1,0.3c0.2,1.5,0.5,9.7-6.3,38.8
			c-6.1,26.2-15,39.8-18.6,44.5c-0.3,0.5-0.7,1-1.2,1.5l0,0C210.4,378.4,205.7,379.1,202,377.1z M268.3,435.8c-0.2,0-0.3,0-0.5,0
			c-3.8,0-6.9-3-6.9-6.6l0-0.8l-0.6-0.2c-3.1-0.8-8.8-2.4-15.3-4.5c0.3-3.9,5.3-5.9,8.8-6.8c13.2-3.2,27-1.6,40.4,0
			c0.4,0.1,0.5-0.6,0.1-0.7c-4.5-1-9-1.7-13.5-2.2c-7.7-1.2-35.9-1.8-36.5,9.4c-5.6-1.8-11.7-4.1-17.2-6.5c-0.2-0.1-0.3-0.2-0.5-0.2
			c-0.7-0.3-1.3-0.6-2-0.9c-0.1-0.1-0.3-0.1-0.4-0.2c-4-1.9-7.5-4-9.9-6.1c-0.1-0.1-0.3-0.2-0.4-0.4l-0.2-0.2l-0.1-0.1
			c-1.8-1.8-2.8-4.2-2.8-6.8c0-4.2,2.8-8,7-9.2c0.6-0.2,1.2-0.3,1.9-0.3c3.9-0.6,12.5-1.3,25.6,0.5c0,0,0.1,0,0.1,0
			c0.5,0.1,1,0.1,1.6,0.2c0,0,0.1,0,0.1,0c0.5,0.1,1.1,0.2,1.6,0.3c0,0,0.1,0,0.1,0c0.6,0.1,1.1,0.2,1.7,0.3c0,0,0,0,0,0l0,0
			c5.1,0.9,10.8,2.1,17,3.9c28,7.9,35.4,12.1,36.9,13.2l0,0l0.3,0.3c1,0.8,1.5,2,1.5,3.3c0,1.7-0.9,3.2-2.5,3.9l-1.3,0.6l1.2,0.8
			c0.9,0.6,1.4,1.5,1.4,2.6c0,1.5-1.1,2.7-2.6,3c-0.3,0.1-27.6,9.4-33.5,10.4c-0.1,0-0.2,0-0.4,0L268.3,435.8z M269.5,460.8l6.7-0.8
			c0,0,0,0,0-0.1l3.7-12.2c0.1-0.2,0.2-0.4,0.4-0.5c-0.1-0.7,0-1.5,0-2.2l0.1-3.2l0.2-6.4c0-0.3,0.2-0.7,0.4-0.9
			c0.4-0.3,0.9-0.7,1.4-0.9c0.8-0.2,1.6-0.5,2.4-0.8c0,0,0,0,0,0l0,0c0.6-0.2,1.3-0.4,1.9-0.6l1.6,1.2c0.4,0.1,0.8,0.2,1.2,0.4
			c1.6-0.7,3.6-0.3,5.2-0.4c0,0,0.5,0,1.1,0c0.1,0.7,0.3,1.4,0.6,2.1c-1.3,0.2-2.6,0.4-3.8,0.5c-0.5,0-0.9,0.1-1.4,0.1
			c-1.6,4.4-3.8,8.5-5.5,12.9c0.1,0.2,0.2,0.4,0.2,0.7c-1.1,4.4-2.8,9.1-4.7,13.4c0.1,0.6,1.4,6.5,1.4,6.5c0.3,1.1-1.3,1.7-1.8,0.7
			l-3-5.6c-0.4,0.1-0.8,0.1-1.2,0l-7.1-1.9C268.3,462.5,268.5,460.9,269.5,460.8z M371.8,498.7l-8.4-1.5c-0.5,1.9-1.7,6.2-1.7,6.2
			c-0.3,1.1-2,0.9-1.9-0.3l0-7.3c0-0.5,0.2-0.9,0.4-1.2c-1.4-2.4-2.8-4.8-3.7-7.2l-0.7-0.1c-0.4-0.1-0.8-0.4-0.9-0.8
			c-1.7-5.8-3.4-11.7-4.9-17.3c-0.8-0.9-1.2-2.5-1.7-4c-0.4-1.6-0.9-3.2-1.3-4.7c-0.1,1.7-0.2,3.4-0.3,5.1
			c-0.6,10.7-3,21.5-8.4,30.9c-2.6,4.6-5.5,10.3-9.7,13c-13.8,8.6-21.8-12.3-26.2-22c-3.1-8.8-4.2-18-4.4-27.3c-0.5,1.7-1,3.3-1.4,5
			c-0.4,1.5-0.9,3.1-1.7,4c-1.6,5.7-3.2,11.5-4.9,17.3c-0.1,0.4-0.5,0.7-0.9,0.8c0,0-0.4,0.1-0.7,0.1c-1,2.4-2.3,4.9-3.7,7.2
			c0.2,0.3,0.4,0.7,0.4,1.2l0,7.3c0,1.1-1.7,1.3-1.9,0.3l-1.7-6.2c-2.1,0.4-8.4,1.5-8.4,1.5c-1.1,0.2-1.6-1.4-0.6-1.9l8.2-4.3
			c0.2-0.1,0.4-0.2,0.6-0.2c0.1-0.4,0.2-0.8,0.3-1.2c-0.7,0.2-1.5,0.5-1.6,0.5c-0.4,0.2-0.7-0.5-0.4-0.7l2.2-1.6c0,0,0.1,0,0.1-0.1
			c0.1-0.4,0.2-0.8,0.2-1.1c-0.7,0.2-1.4,0.4-1.5,0.5c-0.4,0.2-0.7-0.5-0.4-0.7l2.2-1.6c0,0,0,0,0,0c0.1-0.4,0.2-0.8,0.2-1.1
			c-0.2-0.2-0.3-0.5-0.3-0.8c1.3-6,3.9-11.6,6.5-17.2c0-0.1,0.1-0.2,0.2-0.2c-0.5-1-0.6-2-0.5-2.9c0.2-6.7,0.9-13.3,1.6-20
			c0.1-0.6,0.5-0.9,1-1.1c0-0.1,0-0.1,0.1-0.2c0.4-1.1,1.3-1.5,2.1-2c1.5-0.9,3-1.8,4.5-2.6c0.4,0.7,0.8,1.3,1.2,1.9
			c-1.4,1-2.8,2-4.2,3c-0.1,0.1-0.2,0.1-0.2,0.2c1.9,0.4,3.8,1.2,5,2.6c0.8-0.7,1.8-1.3,3.1-1.9c4.9,4.1,11.9,6.7,19.7,6.7
			c7.8,0,14.9-2.6,19.7-6.8c1.2,0.6,2.3,1.2,3,1.8c1.3-1.4,3.2-2.2,5-2.6c-0.1-0.1-0.2-0.1-0.2-0.2c-1.4-0.9-2.8-1.9-4.2-3
			c0.5-0.6,0.9-1.3,1.2-2c1.5,0.8,3,1.7,4.4,2.6c0.8,0.5,1.6,0.9,2.1,2c0,0,0,0.1,0.1,0.1c0.5,0.1,0.9,0.4,1,1.1
			c0.7,6.6,1.4,13.3,1.6,20c0.1,1,0,2-0.5,2.9c0.1,0.1,0.1,0.1,0.2,0.2c2.7,5.5,5.2,11.1,6.5,17.1c0.1,0.3,0,0.7-0.2,0.9
			c0.1,0.4,0.2,0.7,0.2,1.1c0.5,0.3,2.2,1.5,2.2,1.6c0.4,0.3,0.1,0.9-0.4,0.7l-1.5-0.5c0.1,0.4,0.2,0.7,0.2,1.1
			c0.4,0.2,2.3,1.6,2.3,1.6c0.4,0.3,0.1,0.9-0.4,0.7l-1.6-0.5c0.1,0.4,0.2,0.8,0.3,1.2c0.2,0,0.4,0.1,0.6,0.2l8.2,4.3
			C373.4,497.3,372.9,498.9,371.8,498.7z M375.1,462.7l-7.1,1.9c-0.5,0.1-0.9,0.1-1.2,0c-0.8,1.5-3,5.6-3,5.6
			c-0.5,1-2.1,0.4-1.8-0.7l1.4-6.5c-1.8-4.3-3.5-8.9-4.7-13.4c-0.1-0.3,0-0.5,0.2-0.7c-1.7-4.4-3.8-8.4-5.5-12.8
			c-0.5,0-0.9-0.1-1.4-0.1c-1.2-0.1-2.5-0.3-3.8-0.5c0.2-0.7,0.4-1.4,0.6-2.1l1.1,0c1.7,0.1,3.7-0.3,5.2,0.4
			c0.4-0.1,0.8-0.2,1.2-0.4l1.6-1.2c1.5,0.5,2.9,0.9,4.4,1.4c0.5,0.3,0.9,0.6,1.3,0.9c0.3,0.2,0.4,0.6,0.4,0.9l0.2,6.4l0.1,3.2
			c0,0.6,0,1.5,0,2.2c0.2,0.1,0.3,0.3,0.4,0.5l3.7,12.2c0,0,0,0,0,0.1c1.7,0.2,6.7,0.8,6.7,0.8C376.1,460.9,376.2,462.5,375.1,462.7
			z M430.9,408.8l-0.4,0.3c-0.1,0.1-0.3,0.2-0.4,0.4c-2.5,2.2-6.2,4.3-10.4,6.3l0,0c0,0,0,0,0,0c-2,1-4.1,1.9-6.3,2.8c0,0,0,0-0.1,0
			c-0.5,0.2-0.9,0.4-1.4,0.5c-0.2,0.1-0.4,0.1-0.6,0.2c-0.4,0.2-0.8,0.3-1.2,0.5c-0.3,0.1-0.5,0.2-0.8,0.3c-0.3,0.1-0.7,0.3-1,0.4
			c-0.6,0.2-1.1,0.4-1.7,0.6l0,0c-2.2,0.8-4.4,1.5-6.5,2.2c-0.1-4.3-5.5-6.8-9.2-7.9c-13.4-3.6-27.5-1.9-40.9,0.8
			c-0.4,0.1-0.3,0.7,0.1,0.7c4.5-0.6,9-1.1,13.5-1.4c7.3-0.6,34.4-1.7,35.6,8.2c-6.5,2.1-12.2,3.7-15.2,4.5l-0.6,0.2l0,0.7
			c0,0.1,0,0.1,0,0.2c0,3.6-3.1,6.6-6.9,6.6c-0.2,0-0.3,0-0.5,0l-0.4,0c-0.1,0-0.2,0-0.3,0c-5.9-1-33.2-10.3-33.6-10.4
			c-1.5-0.3-2.5-1.5-2.5-3c0-1,0.5-2,1.4-2.6l1.2-0.8l-1.3-0.6c-1.5-0.7-2.5-2.2-2.5-3.9c0-1.3,0.5-2.4,1.5-3.3l0.2-0.2
			c1.2-0.9,8.2-5.2,37.1-13.2c3.5-1,6.8-1.8,9.9-2.5c0,0,0,0,0,0c0.7-0.2,1.5-0.3,2.2-0.5c0,0,0,0,0,0c0.7-0.1,1.4-0.3,2.1-0.4
			c0,0,0,0,0,0c17.6-3.4,29-2.5,33.6-1.8c0.6,0,1.2,0.2,1.9,0.3l0.1,0c4.1,1.2,6.9,5,6.9,9.2C433.7,404.6,432.8,407,430.9,408.8z
			 M451.2,370.3c0,0.2-0.1,0.4-0.1,0.6l-0.1,0.5c-0.7,2.5-2.3,4.5-4.6,5.7c-3.7,2-8.4,1.4-11.5-1.7c-0.4-0.4-0.8-0.9-1.2-1.5
			c-3.5-4.6-12.4-18.2-18.6-44.4c-6.6-28.3-6.5-36.9-6.3-38.7l0.1-0.4c0.3-1.3,1-2.3,2.1-2.9c1.5-0.8,3.2-0.7,4.6,0.3l1.2,0.8
			l0.1-1.4c0.1-1,0.7-2,1.6-2.5c1.3-0.7,2.9-0.4,3.9,0.8c0.2,0.2,21.6,19.6,25.3,24.3c0,0.1,0.1,0.1,0.2,0.4l0.2,0.2
			c0.1,0.1,0.2,0.2,0.3,0.4c1.8,3.3,0.7,7.5-2.5,9.2l-0.8,0.4l0.2,0.6c0.8,3.1,2.1,8.8,3.4,15.5c-3.6,1.6-7.7-1.9-10.2-4.5
			c-9.2-10-14.5-22.9-19.5-35.4c-0.2-0.4-0.8-0.2-0.6,0.2c1.3,4.4,2.9,8.7,4.6,12.9c2.7,7.3,15.8,32.3,25.9,27.5
			C451,348.6,452.8,362.3,451.2,370.3z M472.3,282.8l-3.4,5.3c0.2,0.3,0.4,0.6,0.6,1.1c0,0,1.8,7.2,1.8,7.2c0.3,1-1.2,1.7-1.8,0.8
			l-4-5.5c0,0,0,0-0.1,0l-12.4,2.6c-0.2,0.1-0.4,0-0.6-0.1c-0.6,0.4-1.3,0.7-1.9,1.1l-2.9,1.5l-5.7,3c-0.3,0.2-0.6,0.2-1,0.1
			c-0.5-0.2-1-0.5-1.5-0.8c-0.6-0.6-1.2-1.1-1.8-1.7c0,0,0,0,0,0l0,0c-0.5-0.4-1-0.9-1.5-1.4l0.3-2c-0.1-0.4-0.2-0.8-0.3-1.2
			c-1.3-1-2-3-2.9-4.4c0,0-0.2-0.4-0.5-1c0.5-0.5,1.1-1,1.5-1.5c0.8,1,1.6,2.1,2.3,3.1c0.3,0.4,0.5,0.8,0.8,1.1
			c4.7-0.7,9.2-0.8,13.9-1.4c0.1-0.2,0.3-0.4,0.5-0.5c4.4-1.2,9.3-1.9,14-2.4c1-0.9,5-4.3,5-4.3
			C471.6,280.8,472.9,281.9,472.3,282.8z"/>
	</g>
</g>
</svg>
