<?xml version="1.0" encoding="utf-8"?>
<!-- Generator: Adobe Illustrator 24.0.1, SVG Export Plug-In . SVG Version: 6.00 Build 0)  -->
<svg version="1.0" id="Layer_1" xmlns="http://www.w3.org/2000/svg" xmlns:xlink="http://www.w3.org/1999/xlink" x="0px" y="0px"
	 width="507px" height="187px" viewBox="0 0 507 187" style="enable-background:new 0 0 507 187;" xml:space="preserve">
<g>
	<polygon style="fill:#F0703A;" points="253.5,16 283,0 301.6,18.1 340.3,5 347.2,24.3 393,14.8 387.7,34.1 438.2,28.8 421,47.1 
		473.4,46.3 445.2,62.6 496.8,66.3 459.1,79.8 507,87.7 461.9,97.7 503.6,109.5 453.5,115.3 486.7,130.3 434.3,131.7 457.2,149.2 
		405.4,146.1 416.7,165.1 368.2,157.6 367.5,177 324.9,165.7 312.1,184.5 277.7,169.8 253.5,187 229.3,169.8 194.9,184.5 
		182.1,165.7 139.5,177 138.8,157.6 90.3,165.1 101.6,146.1 49.8,149.2 72.7,131.7 20.3,130.3 53.5,115.3 3.4,109.5 45.1,97.7 
		0,87.7 47.9,79.8 10.2,66.3 61.8,62.6 33.6,46.3 86,47.1 68.8,28.8 119.3,34.1 114,14.8 159.8,24.3 166.7,5 205.4,18.1 224,0 	"/>
</g>
<g>
	<path style="fill:#FFFFFF;" d="M178.8,62c5.3,1.2,7.7,4,7.7,6.6c0,10.3-18.2,12-25.6,12c-2,0-8.4,0-8.4-3c0-1.1,1.8-3.8,2.7-4.6
		c0.6-0.5,3.7-1.5,4.5-1.5c0.3,0,0.4,0.1,0.4,0.4c0,0.5-0.5,0.8-0.9,1c-0.3,0.2-0.6,0.5-0.9,0.8v0.1c18.6,0.7,23.7-4.7,23.7-5.5
		c0-2.7-14.4-4.7-16.9-5.1c-2.6-0.4-5.3-1.2-5.3-4.4c0-1.7,0.8-5.5,1.7-6.9c1.6-2.7,11-7.6,22.4-7.6c2.2,0,4.4,0.3,6.6,0.7
		c1.2,0.3,1.4,0.7,1.4,1.7c0,3.8-1.3,4.7-4.4,5.9c-2.2,0.8-2.7,1.1-4.7,2.5c-0.4,0.2-0.9,0.5-1.3,0.5c-0.5,0-0.8-0.3-0.8-0.8
		c0-0.1,1-1.7,3.8-3.6l-0.1-0.1c-13.4,0.5-19.2,5.3-19.3,6.5C164.9,58.2,164.3,58.6,178.8,62z"/>
	<path style="fill:#FFFFFF;" d="M203.8,73c-2.3,2.9-6.9,7.5-10.9,7.5c-3.1,0-4.5-3.5-4.5-6.2c0-6.3,6.5-12.5,9.6-12.5
		c0.9,0,2.3,0.3,2.3,1.5c0,2.6-5.2,7.2-7.3,8.7c-0.4,2.1,0.4,3.3,2.8,3.3c2.8,0,5.5-2.8,7.5-4.3L203.8,73z M198.8,58.5
		c0-2.1,2.5-4,4.5-4c0.9,0,1.7,0.7,1.7,1.6c0,2.1-1.9,4.6-4.2,4.6C199.7,60.8,198.8,59.8,198.8,58.5z"/>
	<path style="fill:#FFFFFF;" d="M217.5,72.2l-0.1-0.1c-1.9,2.1-7.3,6.8-10.2,6.8c-2.9,0-3.9-3.8-3.9-6.1c0-6.8,11.3-12.3,15.3-12.7
		c0.7-0.1,2.8,0.2,2.8,1.3c0,0.9-1,1.7-1.7,2.1l-5.9,3.2c-3.3,1.8-7.1,3.2-6.7,7c0.1,0.4,0.4,0.5,0.8,0.5c1.5,0.2,4.6-1.1,6.6-3.2
		l5.6-6.1c0.5-0.6,1.1-1.5,2-1.5c1,0,2,1.8,2,2.7c0,0.8-0.7,2-1.1,2.7l-3.9,7.3l0.1,0.1l7.9-5.7l0.3,2.2l-11,8.2
		c-5.5,8.7-10,12-12.1,12c-0.7,0-1.2-0.6-1.2-1.2c0-3.7,7.9-10.3,10.8-12.4L217.5,72.2z"/>
	<path style="fill:#FFFFFF;" d="M251,69.4l0.4,2.3c-2.8,2.4-8.1,8.8-11.9,8.8c-2,0-2.9-1.7-2.9-3.4c0-3.1,2.8-6.6,4.5-8.9l-0.1-0.1
		c-3,2.2-5.7,4.9-8,8c-0.8,1-2.7,3.5-4.1,3.5c-2.3,0-2.9-3.3-2.9-5c-0.2-3.6,3.1-8.8,6.1-11.4c0.7-0.6,1.1-0.6,2-0.6
		c3.1,0.1,2.9,0.8,2.9,1.1c0,2-6.6,7.3-6.6,8.5c0,0.3,0.3,0.6,0.6,0.6c0.4,0,0.8-0.5,1-0.7c4.2-5.3,13.7-11.7,15.2-11.7
		c0.2,0,0.5,0.3,0.8,1c0.3,0.8,0.6,1.7,0.8,2.8c0,2-6.4,6-6.4,9.6c0,0.5,0.4,0.9,0.9,0.9c1.2,0,3.5-1.8,4.5-2.6L251,69.4z"/>
	<path style="fill:#FFFFFF;" d="M276.8,88.4c-0.5,0.6-2,2.6-2.8,2.6c-1.1,0-1.6-2.5-1.6-3.4c0-0.8,1-2.4,1.4-3.1l7-11.8l-0.1-0.1
		c-4.3,3.6-8.1,6.4-8.7,6.3c-1.5-0.1-4-2.3-4.1-6.1c-0.2-6.2,8.7-12.8,10.1-12.9c0.8,0,2.2,1.7,2.2,2.4c0,2-5.9,7.4-7.6,8.7
		c-0.6,0.9-0.9,1.9-1,3c2.8-0.3,5.3-2.5,7.4-4.6c5.4-4.9,8.7-8.5,9.7-8.7c0.9-0.2,1.4,1.9,1.4,2.6c0,1.4-1.4,3.5-2.1,4.6l-7.7,11.4
		l0.1,0.1l11.5-10.2l0.4,1.9L276.8,88.4z"/>
	<path style="fill:#FFFFFF;" d="M312.5,71.9c-2.3,3-4.6,4.2-8.4,4.2c-2.2,2.2-4.7,3.9-8,3.9c-2.7,0-5.2-2.7-5.4-7.4
		c-0.1-3.9,1.8-6.5,4.7-8.7c2.8-2.3,6.6-3.7,9.7-3.8c1.1-0.1,2.9,0.5,2.9,1.9c0,0.8-0.6,1.1-1.2,1.4c1.6,0.4,1.9,1.5,1.9,3.1
		c0,2.3-1,4.1-2,6.1c2.3,0.4,3.7-1.6,5.4-2.8L312.5,71.9z M296.7,69.5c-1.1,1.1-2.1,3.2-2.1,4.8c0,1.5,1,2,2.3,2c1.7,0,2.8-1,4-2.1
		c-0.4-0.8-0.6-1.5-0.6-2.4c0-2.7,2.4-6,2.2-6.1C300.7,66.7,298.2,68,296.7,69.5z"/>
	<path style="fill:#FFFFFF;" d="M326.7,65.9c1.1-1,6.2-5.9,7.5-5.9c0.4,0,1,0.2,1.2,2.9c0.1,1.2-1.3,2.4-2.1,3.2
		c-1.7,1.5-5.4,5.6-5.4,8c0,0.8,0.5,1.1,1.3,1.1c2,0,6.5-3.6,8-4.9l0.3,2.2c-2.7,2.5-8.2,8.5-12,8.5c-1.9,0-3.1-1.6-3.1-3.4
		c0-1.6,0.6-3,1.1-4.4l-0.1-0.1c-2,1.8-5.5,6.4-8.4,6.4c-2.5,0-4-2.9-4-5.1c0-5,3.9-10.2,7.2-12.4c0.7-0.5,1.4-0.6,2.3-0.6
		c0.7,0,3.4-0.5,3.2,1.1c-0.1,0.8-1.5,2.3-2.1,2.8c-1.6,1.8-1.9,2.3-4,3.7c-1.6,1.1-2.9,2.3-2.9,4.5c0,0.3,0.1,0.8,0.4,0.8
		c0.9,0,3.8-1.5,6.2-3.7L326.7,65.9z"/>
	<path style="fill:#FFFFFF;" d="M340.4,68.5c-1.8,2.9-4,4.2-6.2,6.4l-0.2-2.3c1.4-1.1,2.4-2.4,3.4-3.8c-1.1-0.1-1.4-0.5-1.4-1.6
		c0-3.7,5.3-7.5,6.6-7.5c0.5,0,0.9,0.4,0.9,0.9c0,0.5-0.2,1-0.4,1.5c4.9-0.7,7.8-1.3,8.3-0.7c0.8,1,1.1,1.8,1.2,2.8
		c0,1.6-1,2.4-2.2,3.4c-1.5,1.3-4.1,3.8-4.1,5.9c0,0.8,0.8,1.5,1.6,1.5c2.2,0,5.5-3.4,7.2-4.7l0.4,1.9c-2,2.2-8,8-10.9,8
		c-2.2,0-3.5-2-3.5-4c0-3.5,2.7-6.3,4.8-8.8l-0.1-0.1L340.4,68.5z"/>
	<path style="fill:#FFFFFF;" d="M78.9,119.2c-1,0.8-4.3,3.5-5.5,3.5c-1.5,0-4.5-3.4-4.6-6.1c-0.2-6.5,13.3-13.2,19.4-13.3
		c2.4-0.1,3.4,1.9,3.4,2.5c0,0.6-1.4,1.1-1.8,1.3c1,0.4,1.5,1,1.5,2.1c0,1.7-4.5,5.3-4.5,7.7c0,0.9,0.8,1.2,1.6,1.2
		c2.2,0,5.2-2.7,7.4-4.2l0.4,1.9c-2.2,2.5-9.2,8.1-11.8,8.1c-1.7,0-2.5-1.2-2.5-2.8c0-1.7,1.2-4.4,1.9-5.8l-0.1-0.1L78.9,119.2z
		 M72.6,117.9c0.1,0.3,0.3,1.2,1,1c1-0.2,2.7-0.1,13-10.5l-0.1-0.1C74.1,112.1,72.6,115.3,72.6,117.9z"/>
	<path style="fill:#FFFFFF;" d="M110.6,108.9c1.1-1,6.2-5.9,7.5-5.9c0.4,0,1,0.2,1.2,2.9c0.1,1.2-1.3,2.4-2.1,3.2
		c-1.7,1.5-5.4,5.6-5.4,8c0,0.8,0.5,1.1,1.3,1.1c2,0,6.5-3.6,8-4.9l0.3,2.2c-2.7,2.5-8.2,8.5-12,8.5c-1.9,0-3.1-1.6-3.1-3.4
		c0-1.6,0.6-3,1.1-4.4l-0.1-0.1c-2,1.8-5.5,6.4-8.4,6.4c-2.5,0-4-2.9-4-5.1c0-5,3.9-10.2,7.2-12.4c0.7-0.5,1.4-0.6,2.3-0.6
		c0.7,0,3.4-0.5,3.2,1.1c-0.1,0.8-1.5,2.3-2.1,2.8c-1.6,1.8-1.9,2.3-4,3.7c-1.6,1.1-2.9,2.3-2.9,4.5c0,0.3,0.1,0.8,0.4,0.8
		c0.9,0,3.8-1.5,6.2-3.7L110.6,108.9z"/>
	<path style="fill:#FFFFFF;" d="M138.7,101.1c-2.4,4.9-2.9,6.9-8.6,6.5c-1.8,2.3-4.7,6.6-4.7,9.7c0,1.1,0.4,1.8,1.6,1.8
		c1.7,0,3.5-1.6,8.9-5.4l0.3,2.3c-3.1,2.8-8.7,8.4-13.1,8.4c-2,0-3.3-1.4-3.3-3.5c0-1.7,0.7-3.7,1.4-5.2l-0.1-0.1l-2.7,2.1l-0.6-2
		c3.1-2.4,6-5,7.9-8.3c-3.2,0-2.2-0.2-4.9,0.2l0.6-0.9c2.8-4.6,3.2-5.4,8.8-5.6c1.6-2.1,2.7-4.6,5.7-4.6c0.7,0,1.7,0.2,1.7,1
		c0,0.9-1.5,2.7-2,3.4L138.7,101.1z"/>
	<path style="fill:#FFFFFF;" d="M139.1,116.2c2.5-2,12-10.3,14.9-10.3c1.2,0,2.5,1.3,2.5,2.5c0,1-2.1,3.3-2.7,4
		c-3.2,3.9-3.1,4.1-3.1,4.6c0,0.7,0.5,1.1,1.1,1.1c1.7,0,5.5-2.8,7-3.8l0.3,2.1c-2.4,1.8-8.7,6.9-11.6,6.9c-1.6,0-2.4-1.4-2.4-2.8
		c0-3.3,3.6-7.2,5.5-9.7l-0.1-0.1c-8.9,6.1-11.5,11.6-13.2,11.6c-1.8,0-2.1-4.1-2.1-5.3c0-3.6,1.4-6.1,3.2-9
		c6.1-10.1,16.5-19.2,18.3-19.2c0.8,0,2.2,0.4,2.2,1.4c0,3.5-16.5,20.7-19.9,24V116.2z"/>
	<path style="fill:#FFFFFF;" d="M180.1,114.9c-2.3,3-4.6,4.2-8.4,4.2c-2.2,2.2-4.7,3.9-8,3.9c-2.7,0-5.2-2.7-5.4-7.4
		c-0.1-3.9,1.8-6.5,4.7-8.7c2.8-2.3,6.6-3.7,9.7-3.8c1.1-0.1,2.9,0.5,2.9,1.9c0,0.8-0.6,1.1-1.2,1.4c1.6,0.4,1.9,1.5,1.9,3.1
		c0,2.3-1,4.1-2,6.1c2.3,0.4,3.7-1.6,5.4-2.8L180.1,114.9z M164.2,112.5c-1.1,1.1-2.1,3.2-2.1,4.8c0,1.5,1,2,2.3,2
		c1.7,0,2.8-1,4-2.1c-0.4-0.8-0.6-1.5-0.6-2.4c0-2.7,2.4-6,2.2-6.1C168.2,109.7,165.8,111,164.2,112.5z"/>
	<path style="fill:#FFFFFF;" d="M183.1,111.5c-1.8,2.9-4,4.2-6.2,6.4l-0.2-2.3c1.4-1.1,2.4-2.4,3.4-3.8c-1.1-0.1-1.4-0.5-1.4-1.6
		c0-3.7,5.3-7.5,6.6-7.5c0.5,0,0.9,0.4,0.9,0.9c0,0.5-0.2,1-0.4,1.5c4.9-0.7,7.8-1.3,8.3-0.7c0.8,1,1.1,1.8,1.2,2.8
		c0,1.6-1,2.4-2.2,3.4c-1.5,1.3-4.1,3.8-4.1,5.9c0,0.8,0.8,1.5,1.6,1.5c2.2,0,5.5-3.4,7.2-4.7l0.4,1.9c-2,2.2-8,8-10.9,8
		c-2.2,0-3.5-2-3.5-4c0-3.5,2.7-6.3,4.8-8.8l-0.1-0.1L183.1,111.5z"/>
	<path style="fill:#FFFFFF;" d="M212.2,116c-2.3,2.9-6.9,7.5-10.9,7.5c-3.1,0-4.5-3.5-4.5-6.2c0-6.3,6.5-12.5,9.6-12.5
		c0.9,0,2.3,0.3,2.3,1.5c0,2.6-5.2,7.2-7.3,8.7c-0.4,2.1,0.4,3.3,2.8,3.3c2.8,0,5.5-2.8,7.5-4.3L212.2,116z M207.2,101.5
		c0-2.1,2.5-4,4.5-4c0.9,0,1.7,0.7,1.7,1.6c0,2.1-1.9,4.6-4.2,4.6C208.1,103.8,207.2,102.8,207.2,101.5z"/>
	<path style="fill:#FFFFFF;" d="M223.5,121.3c-1.2,8.3-9.3,13.6-12.7,14c-1.4,0.2-2.3-1.1-2.3-2.5c-0.1-2.9,2.6-5.1,4.7-6.8l6.8-5.4
		c-0.5-2.2-1.3-2.4-3.3-3c-0.8-0.2-2-0.3-1.9-1.3c0.3-1.7,3.7-3.1,9.5-7.9l-0.1-0.1l-6.3,1.1l-5.9,6.4l-0.6-1.7l3.6-4.4
		c-0.8-0.2-1.4-0.5-1.4-1.4c0-1.9,4-5.6,5.7-5.6c1,0,1.3,1,1.3,1.8c4.1-0.6,5.9-1.5,6.9-1.5c1,0,1.7,3.5,1.7,4.1
		c0,0.8-0.9,1.6-1.6,2l-6.7,4.8c1.4,1,2.3,2.4,2.7,4.1l8.2-6.3l0.2,2.2L223.5,121.3z M213.8,128.5c-1.5,1.1-2.6,2.3-2.8,4.2
		c3.5-0.9,8.1-5.1,8.8-8.9L213.8,128.5z"/>
	<path style="fill:#FFFFFF;" d="M239.6,119.2c-1,0.8-4.3,3.5-5.5,3.5c-1.5,0-4.5-3.4-4.6-6.1c-0.2-6.5,13.3-13.2,19.4-13.3
		c2.4-0.1,3.4,1.9,3.4,2.5c0,0.6-1.4,1.1-1.8,1.3c1,0.4,1.5,1,1.5,2.1c0,1.7-4.5,5.3-4.5,7.7c0,0.9,0.8,1.2,1.6,1.2
		c2.2,0,5.2-2.7,7.4-4.2l0.4,1.9c-2.2,2.5-9.2,8.1-11.8,8.1c-1.7,0-2.5-1.2-2.5-2.8c0-1.7,1.2-4.4,1.9-5.8l-0.1-0.1L239.6,119.2z
		 M233.3,117.9c0.1,0.3,0.3,1.2,1,1c1-0.2,2.7-0.1,13-10.5l-0.1-0.1C234.8,112.1,233.3,115.3,233.3,117.9z"/>
	<path style="fill:#FFFFFF;" d="M274.5,101.1c-2.4,4.9-2.9,6.9-8.6,6.5c-1.8,2.3-4.7,6.6-4.7,9.7c0,1.1,0.4,1.8,1.6,1.8
		c1.7,0,3.5-1.6,8.9-5.4l0.3,2.3c-3.1,2.8-8.7,8.4-13.1,8.4c-2,0-3.3-1.4-3.3-3.5c0-1.7,0.7-3.7,1.4-5.2l-0.1-0.1l-2.7,2.1l-0.6-2
		c3.1-2.4,6-5,7.9-8.3c-3.2,0-2.2-0.2-4.9,0.2l0.6-0.9c2.8-4.6,3.2-5.4,8.8-5.6c1.6-2.1,2.7-4.6,5.7-4.6c0.7,0,1.7,0.2,1.7,1
		c0,0.9-1.5,2.7-2,3.4L274.5,101.1z"/>
	<path style="fill:#FFFFFF;" d="M286.4,116c-2.3,2.9-6.9,7.5-10.9,7.5c-3.1,0-4.5-3.5-4.5-6.2c0-6.3,6.5-12.5,9.6-12.5
		c0.9,0,2.3,0.3,2.3,1.5c0,2.6-5.2,7.2-7.3,8.7c-0.4,2.1,0.4,3.3,2.8,3.3c2.8,0,5.5-2.8,7.5-4.3L286.4,116z M281.4,101.5
		c0-2.1,2.5-4,4.5-4c0.9,0,1.7,0.7,1.7,1.6c0,2.1-1.9,4.6-4.2,4.6C282.2,103.8,281.4,102.8,281.4,101.5z"/>
	<path style="fill:#FFFFFF;" d="M307.4,114.9c-2.3,3-4.6,4.2-8.4,4.2c-2.2,2.2-4.7,3.9-8,3.9c-2.7,0-5.2-2.7-5.4-7.4
		c-0.1-3.9,1.8-6.5,4.7-8.7c2.8-2.3,6.6-3.7,9.7-3.8c1.1-0.1,2.9,0.5,2.9,1.9c0,0.8-0.6,1.1-1.2,1.4c1.6,0.4,1.9,1.5,1.9,3.1
		c0,2.3-1,4.1-2,6.1c2.3,0.4,3.7-1.6,5.4-2.8L307.4,114.9z M291.5,112.5c-1.1,1.1-2.1,3.2-2.1,4.8c0,1.5,1,2,2.3,2
		c1.7,0,2.8-1,4-2.1c-0.4-0.8-0.6-1.5-0.6-2.4c0-2.7,2.4-6,2.2-6.1C295.5,109.7,293.1,111,291.5,112.5z"/>
	<path style="fill:#FFFFFF;" d="M331.1,112.4l0.4,2.3c-2.8,2.4-8.1,8.8-11.9,8.8c-2,0-2.9-1.7-2.9-3.4c0-3.1,2.8-6.6,4.5-8.9
		l-0.1-0.1c-3,2.2-5.7,4.9-8,8c-0.8,1-2.7,3.5-4.1,3.5c-2.3,0-2.9-3.3-2.9-5c-0.2-3.6,3.1-8.8,6.1-11.4c0.7-0.6,1.1-0.6,2-0.6
		c3.1,0.1,2.9,0.8,2.9,1.1c0,2-6.6,7.3-6.6,8.5c0,0.3,0.3,0.6,0.6,0.6c0.4,0,0.8-0.5,1-0.7c4.2-5.3,13.7-11.7,15.2-11.7
		c0.2,0,0.5,0.3,0.8,1c0.3,0.8,0.6,1.7,0.8,2.8c0,2-6.4,6-6.4,9.6c0,0.5,0.4,0.9,0.9,0.9c1.2,0,3.5-1.8,4.5-2.6L331.1,112.4z"/>
	<path style="fill:#FFFFFF;" d="M354.1,113c-1.1,0.8-2.1,1.6-2.1,3.1c0,1.2,1.2,2.8,4,2.8c4,0,8.5-3.6,11.5-6l0.6,2
		c-3.2,3.4-9,8.5-13.9,8.5c-4,0-5.9-3.7-5.9-7.6c0-4.4,1.6-6,4.9-8.5c2.3-1.8,7.3-4.6,10.2-4.6c1.6,0,2.3,0.8,2.3,2.4
		c0,2.9-4.1,6.9-5.5,6.9c-1.2,0-1.7-1.3-1.8-2.3L354.1,113z"/>
	<path style="fill:#FFFFFF;" d="M375.5,119.2c-1,0.8-4.3,3.5-5.5,3.5c-1.5,0-4.5-3.4-4.6-6.1c-0.2-6.5,13.3-13.2,19.4-13.3
		c2.4-0.1,3.4,1.9,3.4,2.5c0,0.6-1.4,1.1-1.8,1.3c1,0.4,1.5,1,1.5,2.1c0,1.7-4.5,5.3-4.5,7.7c0,0.9,0.8,1.2,1.6,1.2
		c2.2,0,5.2-2.7,7.4-4.2l0.4,1.9c-2.2,2.5-9.2,8.1-11.8,8.1c-1.7,0-2.5-1.2-2.5-2.8c0-1.7,1.2-4.4,1.9-5.8l-0.1-0.1L375.5,119.2z
		 M369.2,117.9c0.1,0.3,0.3,1.2,1,1c1-0.2,2.7-0.1,13-10.5l-0.1-0.1C370.7,112.1,369.2,115.3,369.2,117.9z"/>
	<path style="fill:#FFFFFF;" d="M396,111.5c-1.8,2.9-4,4.2-6.2,6.4l-0.2-2.3c1.4-1.1,2.4-2.4,3.4-3.8c-1.1-0.1-1.4-0.5-1.4-1.6
		c0-3.7,5.3-7.5,6.6-7.5c0.5,0,0.9,0.4,0.9,0.9c0,0.5-0.2,1-0.4,1.5c4.9-0.7,7.8-1.3,8.3-0.7c0.8,1,1.1,1.8,1.2,2.8
		c0,1.6-1,2.4-2.2,3.4c-1.5,1.3-4.1,3.8-4.1,5.9c0,0.8,0.8,1.5,1.6,1.5c2.2,0,5.5-3.4,7.2-4.7l0.4,1.9c-2,2.2-8,8-10.9,8
		c-2.2,0-3.5-2-3.5-4c0-3.5,2.7-6.3,4.8-8.8l-0.1-0.1L396,111.5z"/>
	<path style="fill:#FFFFFF;" d="M431.3,106.7c-1.7,2.7-4.2,6.1-4.2,9.4c0,0.8,0.1,2.6,1.2,2.6c1.8,0,6.6-4.2,8.2-5.3l0.4,1.7
		c-2.4,2.7-7.8,8.2-11.6,8.2c-2,0-2.8-2.1-2.8-3.7c0-1.3,0.2-2.7,0.4-4c-1.8,1.6-6.7,6.6-9,6.6c-2.3,0-3.8-5-3.8-6.8
		c0-6.1,10.4-11.3,14.8-11.6c1.1-0.1,1.5,0.7,2.2,1.5c1.7-3,6.3-13.7,10.1-13.7c1,0,1.7,1,1.7,2c0,1.6-1.4,3.7-2.2,5L431.3,106.7z
		 M414.7,116.5c-0.1,0.5,0.2,0.9,0.8,1c0.6,0.2,9-6.1,9.8-9.2C416.2,111.3,415,113,414.7,116.5z"/>
</g>
</svg>
